<svg width="370" height="275" viewBox="0 0 370 275" fill="none" xmlns="http://www.w3.org/2000/svg">
  <path d="M369.453 241.559H0.547363V241.744H369.453V241.559Z" fill="#EBEBEB" />
  <path d="M63.6892 248.583H39.2529V248.768H63.6892V248.583Z" fill="#EBEBEB" />
  <path d="M158.195 246.584H126.816V246.768H158.195V246.584Z" fill="#EBEBEB" />
  <path d="M83.6691 251.173H69.5105V251.357H83.6691V251.173Z" fill="#EBEBEB" />
  <path d="M332.489 254.198H321.252V254.382H332.489V254.198Z" fill="#EBEBEB" />
  <path d="M314.678 254.198H289.378V254.382H314.678V254.198Z" fill="#EBEBEB" />
  <path d="M245.375 248.886H227.793V249.07H245.375V248.886Z" fill="#EBEBEB" />
  <path
    d="M175.409 208.653H32.9448C31.8287 208.651 30.7591 208.206 29.9706 207.416C29.1821 206.627 28.7393 205.556 28.7393 204.44V4.17601C28.749 3.06636 29.1961 2.00535 29.9835 1.22345C30.771 0.441549 31.8351 0.00190089 32.9448 0H175.409C176.526 0 177.598 0.443858 178.388 1.23393C179.178 2.024 179.622 3.09557 179.622 4.2129V204.44C179.622 205.557 179.178 206.629 178.388 207.419C177.598 208.209 176.526 208.653 175.409 208.653ZM32.9448 0.147563C31.8776 0.149517 30.8549 0.574803 30.101 1.33007C29.3471 2.08534 28.9237 3.10888 28.9237 4.17601V204.44C28.9237 205.507 29.3471 206.531 30.101 207.286C30.8549 208.041 31.8776 208.467 32.9448 208.469H175.409C176.477 208.467 177.5 208.042 178.255 207.286C179.01 206.531 179.435 205.508 179.437 204.44V4.17601C179.435 3.1082 179.01 2.08468 178.255 1.32962C177.5 0.574563 176.477 0.149513 175.409 0.147563H32.9448Z"
    fill="#EBEBEB"
  />
  <path
    d="M335.005 208.653H192.533C191.416 208.651 190.346 208.207 189.556 207.417C188.767 206.627 188.322 205.557 188.32 204.44V4.17601C188.332 3.06569 188.781 2.00469 189.569 1.22299C190.358 0.441291 191.423 0.00188016 192.533 0H335.005C336.113 0.00383993 337.175 0.444346 337.961 1.22604C338.747 2.00774 339.193 3.06764 339.203 4.17601V204.44C339.203 205.555 338.761 206.624 337.974 207.414C337.187 208.203 336.119 208.649 335.005 208.653ZM192.533 0.147563C191.465 0.149513 190.442 0.574563 189.687 1.32962C188.932 2.08468 188.507 3.1082 188.505 4.17601V204.44C188.507 205.508 188.932 206.531 189.687 207.286C190.442 208.042 191.465 208.467 192.533 208.469H335.005C336.072 208.467 337.096 208.042 337.851 207.286C338.606 206.531 339.031 205.508 339.033 204.44V4.17601C339.031 3.1082 338.606 2.08468 337.851 1.32962C337.096 0.574563 336.072 0.149513 335.005 0.147563H192.533Z"
    fill="#EBEBEB"
  />
  <path d="M39.6367 162.193H36.3608L36.9806 241.559H42.4109L39.6367 162.193Z" fill="#E0E0E0" />
  <path d="M38.2568 160.784H94.965L101.273 241.559H44.5651L38.2568 160.784Z" fill="#F5F5F5" />
  <path d="M38.2569 160.784H36.073L42.3813 241.559H44.5652L38.2569 160.784Z" fill="#EBEBEB" />
  <path d="M128.55 82.635H240.115L252.532 241.56H140.968L128.55 82.635Z" fill="#F5F5F5" />
  <path
    d="M198.657 141.519C202.287 147.805 209.348 151.251 216.239 153.464C219.471 154.512 223.743 155.051 225.624 152.218C227.1 150.004 226.155 146.994 226.819 144.419C227.985 139.903 233.378 138.206 237.931 137.188C240.081 136.709 242.188 136.055 244.232 135.233L241.339 98.195C240.764 98.9804 240.334 99.8625 240.07 100.799C239.332 103.131 240.616 105.758 239.783 108.045C239.045 110.148 236.654 111.299 234.419 111.439C232.183 111.579 229.992 110.922 227.778 110.494C219.021 108.768 209.289 110.812 202.877 117.009C196.466 123.207 194.201 133.794 198.657 141.519Z"
    fill="#F5F5F5"
  />
  <path
    d="M128.55 82.635L134.829 163.418C136.203 164.973 137.661 166.451 139.197 167.845C143.233 171.534 147.844 174.758 153.068 176.426C154.836 176.99 156.663 177.353 158.513 177.51C155.126 182.144 154.233 188.88 157.701 193.417C159.575 195.867 162.401 197.372 164.821 199.32C167.241 201.268 169.425 204.012 169.1 207.082C168.872 209.295 167.359 211.184 165.832 212.829C159.929 219.211 152.655 224.634 148.67 232.381C147.475 234.698 146.59 237.332 147.114 239.877C147.232 240.461 147.421 241.028 147.674 241.567H201.232C203.658 235.433 203.838 228.638 201.741 222.384C198.178 212.054 188.962 204.212 178.611 200.633C183.038 196.524 189.095 194.731 194.946 193.167C200.797 191.602 206.869 190.156 211.716 186.526C219.758 180.52 221.721 163.691 207.946 164.303C203.947 164.48 200.413 166.79 196.222 166.893C192.032 166.996 187.922 166.893 183.842 167.159C185.544 165.278 186.988 163.179 188.136 160.917C189.988 157.228 191.139 153.066 190.298 149.053C188.143 138.768 174.9 134.975 169.831 125.767C163.707 114.649 171.572 100.461 168.112 88.2424C167.541 86.2424 166.649 84.3486 165.47 82.635H128.55Z"
    fill="#F5F5F5"
  />
  <path
    d="M128.55 82.6349L134.829 163.418C136.203 164.973 137.661 166.45 139.197 167.845C143.233 171.534 147.844 174.758 153.068 176.425C154.836 176.989 156.663 177.353 158.513 177.51C167.824 178.344 177.46 174.197 183.775 167.136C185.478 165.256 186.922 163.157 188.07 160.895C189.921 157.205 191.072 153.044 190.231 149.031C188.077 138.745 174.833 134.953 169.764 125.745C163.641 114.626 171.506 100.438 168.045 88.2202C167.475 86.2202 166.583 84.3264 165.404 82.6128L128.55 82.6349Z"
    fill="#E6E6E6"
  />
  <path
    d="M147.143 239.87C147.262 240.453 147.45 241.021 147.704 241.559H201.232C203.658 235.425 203.838 228.631 201.741 222.376C198.178 212.047 188.962 204.204 178.611 200.626C183.038 196.516 189.095 194.723 194.946 193.159C200.797 191.595 206.869 190.149 211.716 186.519C219.759 180.513 221.721 163.683 207.946 164.296C203.947 164.473 200.413 166.782 196.222 166.885C192.032 166.989 187.922 166.885 183.842 167.151C180.992 167.286 178.159 167.661 175.372 168.272C169.403 169.608 163.353 171.962 159.347 176.558C159.081 176.868 158.823 177.193 158.609 177.525C155.222 182.158 154.329 188.894 157.797 193.432C159.671 195.881 162.497 197.387 164.917 199.334C167.337 201.282 169.521 204.027 169.196 207.096C168.968 209.31 167.455 211.198 165.928 212.844C160.025 219.226 152.751 224.649 148.766 232.396C147.505 234.69 146.634 237.324 147.143 239.87Z"
    fill="white"
  />
  <path
    d="M198.657 141.519C202.287 147.805 209.348 151.251 216.239 153.464C219.471 154.512 223.743 155.051 225.624 152.218C227.1 150.004 226.155 146.994 226.819 144.419C227.985 139.903 233.378 138.206 237.931 137.188C240.081 136.709 242.188 136.055 244.232 135.233L241.339 98.195C240.764 98.9804 240.334 99.8625 240.07 100.799C239.332 103.131 240.616 105.758 239.783 108.045C239.045 110.148 236.654 111.299 234.419 111.439C232.183 111.579 229.992 110.922 227.778 110.494C219.021 108.768 209.289 110.812 202.877 117.009C196.466 123.207 194.201 133.794 198.657 141.519Z"
    fill="#F0F0F0"
  />
  <path d="M127.355 85.3429L124.61 84.7231L128.55 241.56H138.481L127.355 85.3429Z" fill="#E0E0E0" />
  <path d="M128.55 82.635H124.249L136.666 241.56H140.968L128.55 82.635Z" fill="#EBEBEB" />
  <path d="M233.615 120.344H318.706L328.18 241.559H243.088L233.615 120.344Z" fill="#F5F5F5" />
  <path d="M233.615 120.344H230.331L235.762 241.559H241.192L233.615 120.344Z" fill="#E0E0E0" />
  <path d="M233.615 120.344H230.331L239.805 241.559H243.088L233.615 120.344Z" fill="#EBEBEB" />
  <path d="M59.5134 60.3382H75.8928V15.0883H59.5134L59.5134 60.3382Z" fill="#EBEBEB" />
  <path d="M75.8926 60.3382L298.896 60.3382V15.0883L75.8926 15.0883V60.3382Z" fill="#F5F5F5" />
  <path d="M294.462 55.9113V19.5151L80.3123 19.5151V55.9113L294.462 55.9113Z" fill="#E6E6E6" />
  <path d="M137.817 55.9039V19.5077H119.291V55.9039H137.817Z" fill="#E0E0E0" />
  <path d="M142.074 55.9039V19.5077H137.817V55.9039H142.074Z" fill="#F5F5F5" />
  <path
    d="M258.353 55.9112H281.314C282.308 55.9112 283.114 55.1052 283.114 54.111V33.1202C283.114 32.126 282.308 31.32 281.314 31.32L258.353 31.32C257.359 31.32 256.553 32.126 256.553 33.1202V54.111C256.553 55.1052 257.359 55.9112 258.353 55.9112Z"
    fill="#FAFAFA"
  />
  <path
    d="M259.785 31.32L279.883 31.32C280.197 31.32 280.451 31.0657 280.451 30.7519V28.8557C280.451 28.542 280.197 28.2876 279.883 28.2876L259.785 28.2876C259.471 28.2876 259.217 28.542 259.217 28.8557V30.7519C259.217 31.0657 259.471 31.32 259.785 31.32Z"
    fill="white"
  />
  <path
    d="M283.114 50.1712H262.78C262.52 50.1712 262.27 50.0678 262.086 49.8838C261.902 49.6998 261.799 49.4502 261.799 49.1899V38.0416C261.799 37.7813 261.902 37.5317 262.086 37.3477C262.27 37.1637 262.52 37.0603 262.78 37.0603H283.114V50.1712Z"
    fill="#F0F0F0"
  />
  <path
    d="M227.041 55.9112H250.001C250.996 55.9112 251.802 55.1052 251.802 54.111V33.1202C251.802 32.126 250.996 31.32 250.001 31.32L227.041 31.32C226.047 31.32 225.241 32.126 225.241 33.1202V54.111C225.241 55.1052 226.047 55.9112 227.041 55.9112Z"
    fill="#F5F5F5"
  />
  <path
    d="M228.472 31.32L248.57 31.32C248.884 31.32 249.138 31.0657 249.138 30.7519V28.8557C249.138 28.542 248.884 28.2876 248.57 28.2876L228.472 28.2876C228.158 28.2876 227.904 28.542 227.904 28.8557V30.7519C227.904 31.0657 228.158 31.32 228.472 31.32Z"
    fill="white"
  />
  <path
    d="M251.802 50.1712H231.467C231.207 50.1712 230.958 50.0678 230.774 49.8838C230.59 49.6998 230.486 49.4502 230.486 49.1899V38.0416C230.485 37.9121 230.51 37.7837 230.559 37.6638C230.608 37.5439 230.68 37.4348 230.771 37.3429C230.862 37.251 230.971 37.1781 231.09 37.1283C231.21 37.0785 231.338 37.0529 231.467 37.0529H251.802V50.1712Z"
    fill="#EBEBEB"
  />
  <path
    d="M212.1 55.9112H228C228.689 55.9112 229.247 55.353 229.247 54.6643V40.1221C229.247 39.4334 228.689 38.8752 228 38.8752H212.1C211.411 38.8752 210.853 39.4334 210.853 40.1221V54.6643C210.853 55.353 211.411 55.9112 212.1 55.9112Z"
    fill="#FAFAFA"
  />
  <path
    d="M213.089 38.8752H227.011C227.227 38.8752 227.402 38.7001 227.402 38.4841V37.1635C227.402 36.9475 227.227 36.7724 227.011 36.7724H213.089C212.873 36.7724 212.698 36.9475 212.698 37.1635V38.4841C212.698 38.7001 212.873 38.8752 213.089 38.8752Z"
    fill="white"
  />
  <path
    d="M229.247 51.9345H219.545C219.365 51.9345 219.192 51.8629 219.065 51.7357C218.937 51.6084 218.866 51.4357 218.866 51.2557V43.5308C218.866 43.3508 218.937 43.1781 219.065 43.0508C219.192 42.9235 219.365 42.852 219.545 42.852H229.247V51.9345Z"
    fill="#F0F0F0"
  />
  <path
    d="M91.2834 55.9112H107.183C107.872 55.9112 108.43 55.353 108.43 54.6643V40.1221C108.43 39.4334 107.872 38.8752 107.183 38.8752H91.2834C90.5948 38.8752 90.0365 39.4334 90.0365 40.1221V54.6643C90.0365 55.353 90.5948 55.9112 91.2834 55.9112Z"
    fill="#F5F5F5"
  />
  <path
    d="M92.2722 38.8752H106.195C106.411 38.8752 106.586 38.7001 106.586 38.4841V37.1635C106.586 36.9475 106.411 36.7724 106.195 36.7724H92.2722C92.0562 36.7724 91.8811 36.9475 91.8811 37.1635V38.4841C91.8811 38.7001 92.0562 38.8752 92.2722 38.8752Z"
    fill="white"
  />
  <path
    d="M93.9912 51.9345H105.627C106.49 51.9345 107.191 51.2342 107.191 50.3703V44.4162C107.191 43.5523 106.49 42.852 105.627 42.852H93.9912C93.1274 42.852 92.4271 43.5523 92.4271 44.4162V50.3703C92.4271 51.2342 93.1274 51.9345 93.9912 51.9345Z"
    fill="#EBEBEB"
  />
  <path d="M176.456 55.9112H202.937V27.8154L176.456 27.8154V55.9112Z" fill="#F0F0F0" />
  <path d="M176.456 31.5269L202.937 31.5269V27.8157L176.456 27.8157V31.5269Z" fill="white" />
  <path opacity="0.3" d="M179.341 55.9112H184.063V27.8154H179.341V55.9112Z" fill="#E0E0E0" />
  <path opacity="0.3" d="M186.158 55.9112H188.519V27.8154H186.158V55.9112Z" fill="#E0E0E0" />
  <path d="M150.102 55.9112H173.837V30.7297L150.102 30.7297V55.9112Z" fill="#E0E0E0" />
  <path d="M150.102 34.0573H173.837V30.7297L150.102 30.7297V34.0573Z" fill="#F0F0F0" />
  <path opacity="0.3" d="M152.691 55.9112H156.919V30.7297H152.691V55.9112Z" fill="#F5F5F5" />
  <path opacity="0.3" d="M158.793 55.9112H160.911V30.7297H158.793V55.9112Z" fill="#F5F5F5" />
  <path
    d="M185 274.879C264.007 274.879 328.054 271.139 328.054 266.527C328.054 261.914 264.007 258.175 185 258.175C105.994 258.175 41.946 261.914 41.946 266.527C41.946 271.139 105.994 274.879 185 274.879Z"
    fill="#F5F5F5"
  />
  <path d="M114.436 264.298H118.693L127.333 26.0666H123.068L114.436 264.298Z" fill="#498AF4" />
  <path d="M186.136 264.298H181.872L142.251 26.0666H146.516L186.136 264.298Z" fill="#498AF4" />
  <path d="M92.4934 264.299H96.758L137.81 17.582H133.545L92.4934 264.299Z" fill="#498AF4" />
  <path d="M125.363 32.4416H144.561V29.3944L125.363 29.3944V32.4416Z" fill="#498AF4" />
  <path d="M120.877 178.181H168.916V174.861H120.877V178.181Z" fill="#498AF4" />
  <path
    d="M95.3063 58.4979L94.5706 58.5527L94.8232 61.9446L95.559 61.8898L95.3063 58.4979Z"
    fill="#498AF4"
  />
  <path
    d="M94.1096 42.4514L93.3738 42.5061L94.2749 54.6317L95.0107 54.5771L94.1096 42.4514Z"
    fill="#498AF4"
  />
  <path
    d="M104.372 156.328L105.833 156.342L96.6103 31.394L95.1494 31.3793L104.372 156.328Z"
    fill="#498AF4"
  />
  <path
    d="M105.833 156.342L192.518 157.176L183.296 32.2278L96.6104 31.3941L105.833 156.342Z"
    fill="#498AF4"
  />
  <path
    opacity="0.8"
    d="M105.833 156.342L192.518 157.176L183.296 32.2278L96.6104 31.3941L105.833 156.342Z"
    fill="white"
  />
  <path
    d="M108.305 155.627L190.984 155.671L182.042 32.9434L98.1746 32.8918L108.305 155.627Z"
    fill="white"
  />
  <path
    d="M142.303 158.039H164.438C164.858 158.038 165.263 157.881 165.575 157.599C165.887 157.317 166.083 156.93 166.127 156.512L166.599 152.085H141.049L140.614 156.121C140.583 156.36 140.604 156.604 140.675 156.835C140.746 157.066 140.866 157.28 141.025 157.461C141.185 157.642 141.382 157.788 141.602 157.887C141.822 157.987 142.061 158.039 142.303 158.039Z"
    fill="#498AF4"
  />
  <path
    d="M233.423 87.018C232.594 86.6998 231.797 86.3072 231.039 85.8449C230.198 85.3358 229.328 84.7824 228.472 84.1774C226.753 82.9674 225.041 81.632 223.344 80.2596C219.972 77.4928 218.334 76.3197 215.066 73.3611L211.701 76.3861C213.898 79.4563 216.317 82.3613 218.939 85.0775C220.54 86.745 222.215 88.3608 224.03 89.9176C224.938 90.6554 225.882 91.467 226.908 92.19C228.007 92.989 229.178 93.6855 230.405 94.2707C231.195 94.6356 232.024 94.9079 232.877 95.0823C234.227 95.3632 235.631 95.2215 236.898 94.6765C237.697 94.3097 238.407 93.7734 238.978 93.1049C239.233 92.8062 239.46 92.4852 239.657 92.1458C239.819 91.8506 239.982 91.526 240.1 91.2456L240.255 90.8251L240.365 90.4783L240.498 90.0356L233.423 87.018Z"
    fill="#FFB573"
  />
  <path
    d="M220.799 132.851C222.208 124.676 224.318 120.507 225.299 118.913C226.081 116.656 227.218 114.826 227.756 112.052C227.21 101.877 227.579 87.7998 228.701 85.4905C229.343 84.4723 233.865 81.9933 234.227 81.9047C234.906 75.3972 239.51 69.694 239.51 69.694C240.686 69.6138 241.867 69.6138 243.044 69.694C238.484 75.7588 237.879 79.6765 237.518 81.285C242.352 80.6079 247.251 80.5311 252.104 81.0562C253.417 74.5709 258.951 70.8154 258.951 70.8154C259.92 70.9321 260.875 71.1497 261.799 71.4647C257.07 76.5703 256.192 79.7356 255.609 81.4989C257.593 81.7941 259.851 85.6012 259.851 85.6012C256.619 98.7637 254.244 110.229 254.185 113.055C254.126 115.881 255.262 115.269 255.66 117.821C259.526 118.308 259.873 119.046 259.873 119.046C259.965 120.022 259.823 121.006 259.46 121.916C258.155 121.447 256.797 121.143 255.417 121.009C251.779 140.369 246.689 158.947 246.312 177.65L206.168 176.536C206.168 176.536 215.339 141.726 220.799 132.851Z"
    fill="white"
  />
  <path
    d="M217.567 74.7258L216.446 70.1366L210.086 73.5379C210.086 73.5379 212.056 78.7837 215.007 78.3041L216.807 76.9244C217.133 76.6709 217.379 76.3282 217.514 75.9379C217.649 75.5476 217.667 75.1265 217.567 74.7258Z"
    fill="#FFB573"
  />
  <path
    d="M212.705 65.3186L208.942 70.9998L210.071 73.5378L216.446 70.1365L212.705 65.3186Z"
    fill="#FFB573"
  />
  <path
    d="M259.231 55.4542C257.475 59.7999 254.974 67.7978 257.416 70.9483C254.561 73.1617 250.901 75.6924 245.692 75.5227C240.483 75.353 242.121 71.8336 243.877 70.0186C248.976 69.1849 249.595 65.5327 249.448 62.0576L259.231 55.4542Z"
    fill="#FFB573"
  />
  <path
    d="M244.984 45.309C245.026 45.3323 245.073 45.3445 245.121 45.3445C245.169 45.3445 245.216 45.3323 245.257 45.309C245.567 45.1285 245.917 45.026 246.276 45.0106C246.634 44.9952 246.991 45.0672 247.316 45.2205C247.349 45.2385 247.386 45.2498 247.424 45.2537C247.461 45.2575 247.499 45.2538 247.536 45.2429C247.572 45.2319 247.606 45.2138 247.635 45.1897C247.665 45.1656 247.689 45.136 247.707 45.1024C247.742 45.0366 247.749 44.9598 247.729 44.8883C247.708 44.8167 247.661 44.756 247.596 44.7188C247.187 44.524 246.736 44.4304 246.283 44.4458C245.83 44.4612 245.387 44.5852 244.992 44.8073C244.958 44.8244 244.929 44.848 244.905 44.8766C244.881 44.9053 244.863 44.9385 244.852 44.9743C244.841 45.01 244.837 45.0476 244.841 45.0848C244.845 45.122 244.856 45.1581 244.874 45.191C244.896 45.2418 244.935 45.2834 244.984 45.309Z"
    fill="#263238"
  />
  <path
    d="M245.294 47.9577C244.423 49.2928 243.373 50.5018 242.173 51.5509C242.454 51.8543 242.797 52.0922 243.18 52.2478C243.562 52.4034 243.974 52.4728 244.387 52.451L245.294 47.9577Z"
    fill="#ED893E"
  />
  <path
    d="M245.294 48.1129C245.198 48.5851 244.859 48.9245 244.556 48.8507C244.254 48.7769 244.077 48.3416 244.173 47.8694C244.269 47.3972 244.608 47.0578 244.91 47.1316C245.213 47.2054 245.397 47.6333 245.294 48.1129Z"
    fill="#263238"
  />
  <path
    d="M261.526 49.9428C259.94 55.7124 259.312 59.1654 255.734 61.5485C250.348 65.1343 243.7 60.9509 243.523 54.8271C243.368 49.3082 245.98 40.8087 252.185 39.6798C253.552 39.4231 254.962 39.5204 256.281 39.9624C257.599 40.4044 258.783 41.1764 259.719 42.205C260.655 43.2335 261.313 44.4845 261.629 45.8389C261.945 47.1932 261.91 48.606 261.526 49.9428Z"
    fill="#FFB573"
  />
  <path
    d="M249.027 50.9094C248.486 52.0564 248.223 53.3148 248.259 54.5825C248.295 55.8503 248.629 57.0918 249.234 58.2063C250.422 60.6264 251.344 62.102 255.919 62.8693C260.493 63.6366 258.951 57.3431 261.083 54.8419C263.216 52.3407 270.793 44.5126 263.127 42.55C264.772 36.7655 260.618 34.8399 255.321 36.4409C250.023 38.042 242.852 40.0193 243.826 36.8098C243.826 36.8098 237.51 44.7634 251.204 43.819C246.696 47.6704 249.027 50.9094 249.027 50.9094Z"
    fill="#263238"
  />
  <path
    d="M251.61 37.2007C254.052 36.0633 256.759 35.6144 259.438 35.9021C263.717 36.2563 267.082 38.4845 268.292 44.446C269.502 50.4075 268.661 55.5795 265.768 55.0631C264.817 53.8604 260.899 57.0552 260.899 57.0552C260.08 58.6857 254.487 54.5392 252.089 49.8025C249.691 45.0657 248.135 37.754 251.61 37.2007Z"
    fill="#498AF4"
  />
  <path
    opacity="0.3"
    d="M251.61 37.2007C254.052 36.0633 256.759 35.6144 259.438 35.9021C263.717 36.2563 267.082 38.4845 268.292 44.446C269.502 50.4075 268.661 55.5795 265.768 55.0631C264.817 53.8604 260.899 57.0552 260.899 57.0552C260.08 58.6857 254.487 54.5392 252.089 49.8025C249.691 45.0657 248.135 37.754 251.61 37.2007Z"
    fill="white"
  />
  <path
    d="M249.19 37.5475C247.22 37.8722 247.921 44.1067 250.134 49.2271C252.348 54.3475 256.096 58.7817 259.925 59.3941C260.246 59.0941 260.502 58.7321 260.678 58.33C260.854 57.928 260.947 57.4943 260.951 57.0553C259.888 56.3174 256.147 54.3918 252.709 47.508C249.271 40.6242 251.647 37.1786 251.647 37.1786C251.536 36.7359 249.19 37.5475 249.19 37.5475Z"
    fill="#498AF4"
  />
  <path
    d="M250.916 50.9093C250.544 52.1203 249.761 53.1638 248.703 53.8605C247.316 54.7533 246.349 53.6687 246.489 52.1341C246.63 50.7617 247.522 48.6368 249.02 48.3638C250.518 48.0909 251.359 49.4337 250.916 50.9093Z"
    fill="#FFB573"
  />
  <path d="M236.728 260.374H230.7L231.903 246.414H237.931L236.728 260.374Z" fill="#FFB573" />
  <path
    d="M229.896 259.71H237.237C237.358 259.708 237.475 259.749 237.569 259.824C237.663 259.9 237.728 260.005 237.754 260.123L238.942 265.479C238.971 265.609 238.97 265.744 238.939 265.874C238.908 266.004 238.848 266.125 238.764 266.228C238.679 266.331 238.572 266.414 238.451 266.469C238.329 266.525 238.197 266.552 238.064 266.549C235.695 266.512 233.976 266.372 230.995 266.372C229.166 266.372 225.137 266.564 222.607 266.564C220.076 266.564 219.751 264.063 220.784 263.834C225.425 262.816 227.424 261.421 228.9 260.078C229.175 259.836 229.53 259.705 229.896 259.71Z"
    fill="#263238"
  />
  <path
    opacity="0.2"
    d="M237.931 246.422H231.903L231.283 253.615H237.311L237.931 246.422Z"
    fill="black"
  />
  <path
    d="M212.948 62.0651C212.211 62.2938 212.343 62.6848 212.255 63.0316L212.07 64.094L211.702 66.2189L211.023 70.4835C210.811 71.9001 210.607 73.3241 210.41 74.7554C210.248 76.1868 210.042 77.6107 209.909 79.0495C209.903 79.1422 209.932 79.2339 209.989 79.3068C210.047 79.3796 210.13 79.4286 210.221 79.4442C210.313 79.4597 210.407 79.4408 210.486 79.3911C210.564 79.3414 210.621 79.2644 210.647 79.1749C211.023 77.7804 211.325 76.3786 211.665 74.9768C212.004 73.5749 212.284 72.1657 212.572 70.7565L213.413 66.5288L213.804 64.4039L214.004 63.3489C214.004 62.9873 214.299 62.6701 213.686 62.1905C213.582 62.1119 213.461 62.0595 213.333 62.0377C213.204 62.0158 213.073 62.0252 212.948 62.0651Z"
    fill="#263238"
  />
  <path
    d="M213.162 62.4415C213.937 62.589 215.376 62.1095 214.926 60.1469C214.476 58.1843 213.28 57.7195 214.822 56.3176C211.893 58.0072 210.573 61.925 213.162 62.4415Z"
    fill="#498AF4"
  />
  <path
    d="M266.551 76.1941C258.132 98.1513 259.77 120.463 258.767 125.185L226.687 124.189C225.838 96.0117 230.509 78.105 233.401 72.7485C233.679 72.2225 234.074 71.7678 234.557 71.4197C235.039 71.0716 235.595 70.8396 236.182 70.7416C237.031 70.6088 238.123 70.4613 239.347 70.3285C240.24 70.2325 241.199 70.144 242.203 70.085C242.749 70.0481 243.31 70.026 243.878 70.0112C248.407 70.0586 252.93 70.369 257.424 70.9408C258.265 71.0441 259.121 71.1696 259.947 71.3024C260.773 71.4352 261.46 71.568 262.161 71.7082C263.053 71.8779 263.887 72.0623 264.625 72.232C265.035 72.3298 265.418 72.5173 265.747 72.7811C266.075 73.0449 266.341 73.3783 266.525 73.7573C266.71 74.1363 266.807 74.5514 266.812 74.9728C266.816 75.3942 266.727 75.8113 266.551 76.1941Z"
    fill="#498AF4"
  />
  <path
    d="M229.63 84.6417L228.62 88.3307C253.004 96.2105 243.044 69.6862 243.044 69.6862C241.871 69.5241 240.682 69.5241 239.51 69.6862C244.232 82.8783 239.761 89.3268 229.63 84.6417Z"
    fill="white"
  />
  <path
    opacity="0.2"
    d="M242.837 78.8868C248.592 78.6802 251.366 89.0095 251.366 89.0095L250.628 89.5629L255.653 98.2543L249.75 101.693L244.239 93.2298L242.837 94.2701C240.453 92.4344 238.48 90.1196 237.045 87.4749C233.858 81.5134 235.857 79.1229 242.837 78.8868Z"
    fill="black"
  />
  <path
    d="M257.866 99.1988C257.808 98.6974 257.699 98.2031 257.542 97.7232C257.472 97.5003 257.391 97.2811 257.298 97.0666L257.077 96.5722C256.656 95.6352 256.243 94.6834 255.778 93.7759C254.858 91.9424 253.841 90.1593 252.731 88.4342C251.627 86.7113 250.436 85.0466 249.16 83.4466C248.511 82.6497 247.854 81.8677 247.161 81.1003C246.821 80.7093 246.46 80.3625 246.106 79.9493L245.538 79.3812L244.91 78.7688L238.602 85.4091L239.414 86.2871C239.709 86.6044 240.004 86.9217 240.299 87.2537C240.882 87.9103 241.458 88.5965 242.018 89.2827C243.162 90.655 244.232 92.0716 245.309 93.5177C246.386 94.9638 247.375 96.4689 248.297 97.9446C248.754 98.6455 249.16 99.3685 249.581 100.092C249.041 100.486 248.462 100.825 247.854 101.102C246.287 101.807 244.666 102.384 243.007 102.829C239.547 103.795 235.813 104.533 232.168 105.197L232.353 109.72C236.346 109.984 240.356 109.868 244.328 109.373C246.439 109.119 248.521 108.667 250.547 108.023C251.724 107.646 252.853 107.134 253.912 106.496C254.57 106.096 255.179 105.62 255.727 105.079C256.439 104.384 257.006 103.553 257.394 102.637C257.84 101.549 258.002 100.366 257.866 99.1988Z"
    fill="#FFB573"
  />
  <path
    d="M234.308 104.769L229.601 105.256L232.11 112.022C232.11 112.022 237.577 110.79 237.503 107.802L236.382 105.832C236.176 105.473 235.87 105.182 235.502 104.994C235.134 104.805 234.72 104.727 234.308 104.769Z"
    fill="#FFB573"
  />
  <path
    d="M225.359 107.477L226.31 113.748L232.11 112.059L229.601 105.286L225.359 107.477Z"
    fill="#FFB573"
  />
  <path
    d="M239.709 70.2841C245.442 70.8891 252.421 85.365 252.421 85.365L242.83 91.7839C242.83 91.7839 238.846 90.3747 234.552 84.2952C229.409 76.9761 232.22 69.5094 239.709 70.2841Z"
    fill="#498AF4"
  />
  <path
    d="M238.064 124.543C238.064 124.543 231.482 171.91 229.771 189.522C227.889 208.838 228.701 251.328 228.701 251.328H239.768C239.768 251.328 242.867 208.838 246.342 190.001C250.296 168.553 261.836 136.414 258.796 125.192L238.064 124.543Z"
    fill="#263238"
  />
  <path
    opacity="0.2"
    d="M240.048 138.649C239.65 138.782 237.894 138.989 236.049 139.291C234.714 149.222 232.95 162.51 231.578 173.725C236.684 164.79 241.435 147.562 240.048 138.649Z"
    fill="black"
  />
  <path
    d="M227.764 252.272H240.764L241.295 248.391L227.719 247.764L227.764 252.272Z"
    fill="#498AF4"
  />
  <path
    opacity="0.2"
    d="M227.764 252.272H240.764L241.295 248.391L227.719 247.764L227.764 252.272Z"
    fill="black"
  />
  <path
    d="M227.896 260.728C228.429 260.714 228.958 260.642 229.475 260.514C229.504 260.508 229.53 260.494 229.549 260.472C229.569 260.451 229.582 260.425 229.586 260.396C229.591 260.367 229.587 260.338 229.575 260.312C229.563 260.286 229.544 260.264 229.52 260.248C229.298 260.116 227.358 258.92 226.686 259.26C226.613 259.299 226.552 259.358 226.509 259.429C226.466 259.501 226.444 259.582 226.443 259.665C226.43 259.803 226.45 259.942 226.501 260.07C226.553 260.198 226.634 260.313 226.738 260.403C227.076 260.639 227.485 260.754 227.896 260.728ZM229.062 260.307C228.037 260.514 227.255 260.477 226.923 260.204C226.852 260.14 226.797 260.059 226.764 259.969C226.73 259.879 226.719 259.783 226.731 259.688C226.731 259.57 226.782 259.533 226.819 259.518C227.166 259.341 228.273 259.857 229.062 260.307Z"
    fill="#498AF4"
  />
  <path
    d="M229.446 260.514C229.466 260.514 229.485 260.51 229.503 260.502C229.521 260.494 229.537 260.483 229.551 260.468C229.564 260.453 229.574 260.436 229.58 260.417C229.586 260.399 229.588 260.379 229.586 260.359C229.586 260.285 229.438 258.552 228.738 257.976C228.653 257.906 228.555 257.853 228.45 257.822C228.345 257.79 228.234 257.78 228.125 257.792C228.018 257.793 227.915 257.831 227.833 257.9C227.751 257.968 227.695 258.063 227.675 258.168C227.55 258.839 228.752 260.16 229.372 260.499L229.446 260.514ZM228.228 258.072C228.348 258.075 228.463 258.119 228.553 258.197C228.982 258.739 229.239 259.397 229.291 260.086C228.671 259.614 227.904 258.611 227.978 258.22C227.978 258.183 227.978 258.101 228.184 258.079H228.251L228.228 258.072Z"
    fill="#498AF4"
  />
  <path
    d="M232.168 254.25L226.332 256.286L223.182 242.976L229.025 240.94L232.168 254.25Z"
    fill="#FFB573"
  />
  <path
    d="M225.639 256.663C225.602 256.604 224.901 255.135 223.949 254.811C223.816 254.763 223.674 254.742 223.532 254.75C223.39 254.757 223.251 254.793 223.123 254.855C222.828 255.003 222.754 255.18 222.754 255.327C222.751 255.357 222.751 255.386 222.754 255.416C222.894 256.094 224.695 256.818 225.491 256.891C225.522 256.903 225.557 256.903 225.587 256.891C225.608 256.882 225.626 256.868 225.64 256.85C225.655 256.833 225.665 256.812 225.67 256.79C225.675 256.768 225.675 256.745 225.669 256.723C225.664 256.701 225.654 256.68 225.639 256.663ZM223.042 255.364C223.037 255.331 223.042 255.297 223.057 255.267C223.071 255.237 223.094 255.211 223.123 255.194C223.161 255.162 223.204 255.135 223.249 255.113C223.352 255.062 223.465 255.034 223.581 255.032C223.676 255.035 223.771 255.052 223.861 255.084C224.464 255.421 224.949 255.936 225.248 256.559C224.399 256.39 223.123 255.77 223.042 255.364Z"
    fill="#498AF4"
  />
  <path
    d="M225.58 256.84C225.599 256.822 225.613 256.8 225.621 256.776C225.628 256.751 225.629 256.725 225.624 256.7C225.618 256.671 225.604 256.645 225.583 256.625C225.561 256.606 225.535 256.593 225.506 256.589C225.196 256.545 222.503 256.235 221.957 256.869C221.904 256.928 221.868 257.001 221.852 257.078C221.837 257.156 221.842 257.237 221.869 257.312C221.899 257.437 221.959 257.554 222.044 257.651C222.129 257.749 222.236 257.825 222.355 257.873C223.182 258.19 224.716 257.364 225.558 256.847L225.58 256.84ZM222.215 257.017C222.584 256.714 223.986 256.729 225.041 256.825C223.875 257.489 222.924 257.784 222.459 257.6C222.379 257.57 222.309 257.52 222.253 257.456C222.198 257.391 222.159 257.314 222.141 257.231C222.125 257.206 222.116 257.176 222.116 257.146C222.116 257.116 222.125 257.086 222.141 257.061C222.17 257.04 222.203 257.025 222.237 257.017H222.215Z"
    fill="#498AF4"
  />
  <path
    d="M225.867 255.851L232.035 253.571C232.148 253.529 232.271 253.526 232.386 253.563C232.5 253.601 232.598 253.677 232.663 253.778L235.614 258.389C235.689 258.501 235.738 258.628 235.756 258.762C235.774 258.895 235.761 259.031 235.718 259.159C235.675 259.286 235.604 259.402 235.509 259.498C235.414 259.594 235.298 259.666 235.171 259.71C232.958 260.492 229.667 261.554 226.871 262.587C223.595 263.797 223.617 263.945 219.773 265.362C217.456 266.225 215.944 264.115 216.822 263.547C220.887 260.942 221.684 260.595 224.628 256.81C224.941 256.378 225.371 256.045 225.867 255.851Z"
    fill="#263238"
  />
  <path
    opacity="0.2"
    d="M223.189 242.983L224.805 249.845L230.648 247.801L229.025 240.94L223.189 242.983Z"
    fill="black"
  />
  <path
    d="M224.407 185.324C229.52 172.493 247.773 124.823 247.773 124.823L226.687 124.167C226.687 124.167 212.668 163.536 207.157 181.672C201.402 200.53 222.09 248.311 222.09 248.311L232.7 244.998C232.7 244.998 219.294 198.154 224.407 185.324Z"
    fill="#263238"
  />
  <path
    d="M221.581 249.447L233.563 245.227L232.7 241.545L220.245 245.286L221.581 249.447Z"
    fill="#498AF4"
  />
  <path
    opacity="0.2"
    d="M221.581 249.447L233.563 245.227L232.7 241.545L220.245 245.286L221.581 249.447Z"
    fill="black"
  />
  <path
    d="M226.318 117.246L225.979 120.544C240.89 120.942 247.81 122.691 247.81 122.691C248.002 121.698 248.113 120.691 248.142 119.681C242.697 117.593 232.368 117.128 226.318 117.246Z"
    fill="white"
  />
  <path
    d="M259.851 119.032L259.438 121.902C255.514 121.798 251.589 122.062 247.714 122.691C247.599 121.671 247.733 120.638 248.105 119.681C254.192 118.154 258.044 118.604 259.851 119.032Z"
    fill="white"
  />
  <path
    d="M261.799 71.4498L258.951 70.8005C259.438 82.0816 262.825 88.3235 262.825 88.3235C263.558 86.951 264.009 85.446 264.153 83.8966C262.383 79.9961 261.575 75.7274 261.799 71.4498Z"
    fill="white"
  />
  <path
    d="M246.157 122.691C245.907 123.547 247.825 123.148 248.105 122.868C248.386 122.587 251.507 119.238 249.832 119.053C248.157 118.869 248.024 119.238 248.024 119.238C247.415 118.854 246.715 118.64 245.995 118.618C244.829 118.603 246.681 120.942 246.157 122.691Z"
    fill="white"
  />
  <path
    d="M245.988 119.297C244.711 120.293 241.096 125.059 240.882 130.01C241.81 129.564 242.766 129.179 243.745 128.859C243.745 128.859 244.357 124.764 246.571 122.277L245.988 119.297Z"
    fill="white"
  />
  <path
    d="M249.286 119.659C250.437 121.245 253.654 127.826 253.764 133.279C252.94 132.445 252.073 131.654 251.167 130.91C251.167 130.91 250.201 125.635 248.216 122.057L249.286 119.659Z"
    fill="white"
  />
  <path d="M238.609 141.874H236.396L215.413 266.527H217.626L238.609 141.874Z" fill="#498AF4" />
  <path d="M263.865 141.874H261.651L240.661 266.527H242.874L263.865 141.874Z" fill="#498AF4" />
  <path
    opacity="0.2"
    d="M263.865 141.874H261.651L240.661 266.527H242.874L263.865 141.874Z"
    fill="black"
  />
  <path d="M266.727 141.874H268.941L289.931 266.527H287.718L266.727 141.874Z" fill="#498AF4" />
  <path d="M241.48 141.874H243.693L264.684 266.527H262.47L241.48 141.874Z" fill="#498AF4" />
  <path
    d="M238.58 136.414H266.765C267.352 136.414 267.915 136.648 268.33 137.063C268.745 137.478 268.978 138.041 268.978 138.628V141.904H236.396V138.628C236.396 138.046 236.625 137.487 237.034 137.073C237.443 136.659 237.998 136.422 238.58 136.414Z"
    fill="#498AF4"
  />
</svg>
