<svg width="179" height="168" viewBox="0 0 179 168" fill="none" xmlns="http://www.w3.org/2000/svg">
  <path
    d="M10.0145 45.2614C10.8791 44.2528 11.8746 43.3644 12.9748 42.6198L12.5552 38.9642L18.2969 36.9518L20.2393 40.0597C21.5641 39.9573 22.8967 40.0318 24.2018 40.2811L26.4861 37.4025L31.9792 40.0325L31.1556 43.6143C32.1654 44.4773 33.0551 45.4716 33.8012 46.5706L37.4529 46.1511L39.4652 51.8928L36.3574 53.8352C36.4612 55.1585 36.3881 56.4898 36.1398 57.7938L39.0185 60.082L36.3807 65.5634L32.7989 64.7437C31.9355 65.7535 30.9398 66.642 29.8387 67.3854L30.2582 71.041L24.5165 73.0533L22.5741 69.9455C21.2506 70.0477 19.9193 69.9733 18.6155 69.724L16.3312 72.6027L10.8265 69.9843L11.65 66.4025C10.6403 65.5395 9.75057 64.5452 9.00449 63.4462L5.35278 63.8658L3.34045 58.124L6.44829 56.1816C6.34249 54.8583 6.41566 53.5268 6.66584 52.223L3.78721 49.9349L6.42499 44.4534L10.0068 45.2731L10.0145 45.2614ZM14.0042 51.4577C13.3003 52.9207 13.046 54.5596 13.2735 56.1671C13.501 57.7746 14.2001 59.2786 15.2824 60.4888C16.3647 61.699 17.7816 62.561 19.3538 62.966C20.926 63.3709 22.583 63.3005 24.1153 62.7637C25.6475 62.2268 26.9861 61.2477 27.9619 59.9501C28.9376 58.6525 29.5066 57.0946 29.597 55.4736C29.6873 53.8526 29.2949 52.2412 28.4695 50.8431C27.644 49.4451 26.4225 48.3233 24.9594 47.6195C22.9975 46.6769 20.7416 46.5517 18.6875 47.2714C16.6333 47.9911 14.9489 49.4968 14.0042 51.4577Z"
    fill="#EBEBEB"
  />
  <path
    d="M149.016 102.003C149.868 101.01 150.848 100.135 151.93 99.4001L151.518 95.7989L157.178 93.8137L159.101 96.8866C160.406 96.7835 161.72 96.8554 163.006 97.1003L165.259 94.2644L170.663 96.8633L169.854 100.395C170.847 101.246 171.723 102.226 172.457 103.308L176.059 102.896L178.044 108.557L174.971 110.48C175.074 111.785 175.002 113.098 174.757 114.384L177.593 116.637L175.01 122.041L171.463 121.225C170.611 122.218 169.631 123.093 168.549 123.828L168.961 127.429L163.301 129.414L161.378 126.341C160.073 126.444 158.76 126.372 157.474 126.128L155.22 128.963L149.817 126.364L150.625 122.833C149.632 121.982 148.757 121.002 148.022 119.92L144.421 120.331L142.436 114.671L145.508 112.748C145.405 111.443 145.477 110.13 145.722 108.844L142.886 106.591L145.485 101.195L149.016 102.003ZM152.948 108.11C152.254 109.552 152.003 111.168 152.227 112.753C152.451 114.338 153.14 115.821 154.207 117.014C155.274 118.207 156.671 119.057 158.221 119.456C159.771 119.855 161.405 119.786 162.916 119.256C164.426 118.727 165.746 117.761 166.708 116.482C167.669 115.202 168.23 113.666 168.319 112.068C168.407 110.47 168.02 108.881 167.206 107.503C166.391 106.125 165.186 105.019 163.744 104.326C161.81 103.398 159.587 103.275 157.563 103.985C155.539 104.694 153.879 106.178 152.948 108.11Z"
    fill="#E0E0E0"
  />
  <path
    d="M145.874 47.7011C146.531 46.9322 147.289 46.2553 148.127 45.6888L147.808 42.9034L152.186 41.3689L153.674 43.7425C154.683 43.6645 155.698 43.7207 156.693 43.9095L158.437 41.7146L162.617 43.7269L161.988 46.4463C162.758 47.1036 163.436 47.8615 164.004 48.6995L166.789 48.3809L168.324 52.7591L165.946 54.247C166.026 55.2561 165.97 56.2713 165.779 57.2655L167.974 59.0098L165.966 63.1898L163.246 62.5605C162.588 63.3305 161.829 64.0087 160.989 64.5767L161.312 67.3621L156.934 68.916L155.446 66.5424C154.436 66.621 153.421 66.5635 152.427 66.3715L150.683 68.5664L146.503 66.5579L147.128 63.8386C146.36 63.1802 145.684 62.4225 145.116 61.5854L142.331 61.9039L140.792 57.5141L143.166 56.0262C143.088 55.0171 143.144 54.0021 143.333 53.0077L141.138 51.2635L143.154 47.0756L145.874 47.7011ZM148.915 52.425C148.378 53.5404 148.184 54.7901 148.357 56.0161C148.53 57.242 149.063 58.389 149.888 59.312C150.713 60.2351 151.793 60.8926 152.992 61.2015C154.191 61.5104 155.455 61.4567 156.623 61.0473C157.792 60.6379 158.812 59.8911 159.556 58.9015C160.3 57.9118 160.734 56.7238 160.803 55.4876C160.871 54.2514 160.571 53.0227 159.942 51.9568C159.312 50.891 158.38 50.0359 157.264 49.4998C155.769 48.7839 154.052 48.6899 152.489 49.2383C150.925 49.7866 149.643 50.9326 148.923 52.425H148.915Z"
    fill="#EBEBEB"
  />
  <path
    d="M134.837 27.469C135.279 26.9511 135.789 26.4951 136.352 26.1132L136.139 24.2408L139.079 23.2113L140.082 24.8079C140.76 24.7526 141.442 24.7905 142.109 24.9206L143.275 23.4444L146.084 24.7963L145.664 26.6299C146.18 27.0738 146.636 27.5831 147.02 28.145L148.888 27.9313L149.922 30.8721L148.329 31.8744C148.38 32.5524 148.343 33.2341 148.216 33.9023L149.693 35.0677L148.341 37.8764L146.503 37.453C146.062 37.9718 145.553 38.4279 144.988 38.8088L145.206 40.6812L142.265 41.7107L141.263 40.1141C140.585 40.1676 139.903 40.1297 139.235 40.0014L138.069 41.4776L135.261 40.1257L135.684 38.2921C135.167 37.8493 134.711 37.3398 134.328 36.777L132.456 36.9907L131.426 34.0499L133.015 33.0398C132.96 32.3619 132.998 31.6796 133.128 31.012L131.652 29.8465L133.003 27.0378L134.837 27.4613V27.469ZM136.881 30.6429C136.521 31.392 136.391 32.2311 136.507 33.054C136.624 33.8769 136.982 34.6467 137.536 35.2662C138.09 35.8856 138.816 36.3269 139.621 36.5342C140.426 36.7415 141.274 36.7055 142.058 36.4309C142.843 36.1562 143.528 35.6551 144.028 34.9909C144.528 34.3268 144.819 33.5294 144.866 32.6996C144.912 31.8698 144.712 31.0447 144.29 30.3288C143.868 29.6128 143.243 29.0381 142.494 28.6772C141.996 28.4374 141.456 28.298 140.905 28.267C140.353 28.236 139.801 28.314 139.28 28.4965C138.759 28.6791 138.278 28.9626 137.867 29.3309C137.455 29.6992 137.12 30.145 136.881 30.6429Z"
    fill="#F5F5F5"
  />
  <path
    d="M32.5383 129.41C32.9821 128.894 33.4914 128.438 34.0533 128.054L33.8397 126.182L36.7805 125.152L37.7827 126.749C38.4607 126.698 39.1425 126.736 39.8106 126.862L40.976 125.386L43.7848 126.737L43.3613 128.575C43.8801 129.016 44.3363 129.526 44.7171 130.09L46.5896 129.872L47.6191 132.813L46.0341 133.816C46.0895 134.493 46.0516 135.176 45.9214 135.843L47.3976 137.009L46.0341 139.825L44.2004 139.402C43.7576 139.919 43.2481 140.375 42.6854 140.758L42.899 142.63L39.9582 143.66L38.9559 142.063C38.278 142.118 37.5957 142.08 36.9281 141.95L35.7626 143.427L32.95 142.075L33.3735 140.241C32.8556 139.799 32.3996 139.29 32.0177 138.726L30.1452 138.94L29.1196 135.987L30.7163 134.985C30.6629 134.307 30.7008 133.625 30.8289 132.957L29.3527 131.792L30.7046 128.994L32.5383 129.414V129.41ZM34.5855 132.584C34.2263 133.333 34.0971 134.172 34.2141 134.994C34.3312 135.817 34.6893 136.586 35.2433 137.205C35.7972 137.824 36.5222 138.265 37.3266 138.472C38.1311 138.679 38.9789 138.644 39.763 138.37C40.5472 138.095 41.2325 137.595 41.7324 136.932C42.2324 136.268 42.5245 135.471 42.572 134.642C42.6195 133.813 42.4202 132.988 41.9992 132.272C41.5783 131.556 40.9546 130.98 40.2069 130.618C39.7089 130.377 39.1682 130.237 38.6158 130.205C38.0635 130.174 37.5103 130.251 36.9881 130.434C36.4658 130.617 35.9847 130.901 35.5725 131.27C35.1602 131.638 34.8248 132.085 34.5855 132.584Z"
    fill="#F5F5F5"
  />
  <path
    d="M54.806 139.627C55.4734 138.85 56.2401 138.164 57.0864 137.588L56.764 134.771L61.1926 133.217L62.6999 135.622C63.7207 135.542 64.7475 135.598 65.7534 135.789L67.5171 133.571L71.7477 135.599L71.1144 138.364C71.8932 139.03 72.5791 139.797 73.1539 140.645L75.9704 140.322L77.5243 144.751L75.1197 146.258C75.1983 147.279 75.1408 148.306 74.9487 149.312L77.1708 151.076L75.1352 155.306L72.3731 154.669C71.7086 155.449 70.9415 156.135 70.0927 156.709L70.4152 159.529L65.9865 161.083L64.4792 158.682C63.4583 158.761 62.4315 158.703 61.4257 158.511L59.662 160.733L55.4315 158.698L56.0647 155.935C55.2878 155.267 54.6021 154.499 54.0252 153.651L51.2087 153.978L49.6548 149.549L52.0595 148.042C51.981 147.019 52.0384 145.991 52.2304 144.984L50.0083 143.224L52.0439 138.994L54.806 139.627ZM57.8828 144.405C57.3395 145.534 57.1431 146.798 57.3185 148.038C57.4938 149.279 58.033 150.439 58.8679 151.373C59.7027 152.306 60.7957 152.972 62.0087 153.284C63.2216 153.596 64.4999 153.542 65.682 153.128C66.8641 152.714 67.8968 151.959 68.6495 150.957C69.4023 149.956 69.8412 148.754 69.9108 147.504C69.9804 146.253 69.6775 145.01 69.0405 143.932C68.4036 142.853 67.4611 141.988 66.3322 141.445C64.8192 140.718 63.0791 140.621 61.4946 141.176C59.9102 141.731 58.611 142.893 57.8828 144.405Z"
    fill="#EBEBEB"
  />
  <path
    d="M27.0181 78.8533C26.9315 78.8942 26.8401 78.9242 26.7462 78.9427C26.5636 78.9893 26.2994 79.0709 25.9459 79.1447C24.9598 79.3648 23.9586 79.5102 22.9507 79.5798C19.6059 79.8309 16.2489 79.294 13.1493 78.0121C10.0498 76.7301 7.29417 74.739 5.10392 72.1986C4.44285 71.4344 3.84029 70.6215 3.30138 69.7668C3.10325 69.4676 2.97505 69.219 2.87793 69.0597C2.82622 68.9784 2.78201 68.8926 2.74585 68.8033C2.81031 68.8743 2.86636 68.9526 2.9129 69.0364C3.02167 69.1918 3.16152 69.4249 3.36742 69.724C5.4952 72.9161 8.42406 75.4933 11.8609 77.1977C15.2977 78.9021 19.1219 79.674 22.9507 79.436C23.9539 79.3718 24.9518 79.242 25.9381 79.0476C26.2916 78.9893 26.5597 78.9155 26.7423 78.8805C26.8333 78.8641 26.9256 78.855 27.0181 78.8533Z"
    fill="#E0E0E0"
  />
  <path
    d="M19.3494 81.6815C19.2099 81.6962 19.0693 81.6962 18.9299 81.6815C18.6618 81.6815 18.2733 81.6543 17.7955 81.5999C16.5496 81.4678 15.3207 81.2075 14.1282 80.823C12.9377 80.4321 11.7898 79.9219 10.7018 79.3001C10.2862 79.0593 9.95596 78.8495 9.73841 78.6941C9.61891 78.6215 9.50812 78.5355 9.4082 78.4377C9.42763 78.4066 9.92877 78.7252 10.7718 79.1719C11.8635 79.7535 13.0034 80.2396 14.1787 80.6248C15.3596 81.0086 16.5708 81.2919 17.7994 81.4717C18.7589 81.5999 19.3494 81.6465 19.3494 81.6815Z"
    fill="#E0E0E0"
  />
  <path
    d="M64.8488 39.9166C68.5869 37.6596 72.6095 35.9115 76.8101 34.7188L79.2731 22.8779L99.2798 22.5244L102.158 34.272C106.4 35.3157 110.482 36.9213 114.298 39.0464L124.399 32.419L138.796 46.3188L132.53 56.6524C134.786 60.3922 136.534 64.416 137.728 68.6176L149.565 71.0844L149.918 91.0873L138.171 93.9698C137.126 98.2096 135.521 102.291 133.396 106.106L140.024 116.206L126.128 130.6L115.798 124.333C112.058 126.59 108.034 128.338 103.833 129.531L101.37 141.372L81.3631 141.722L78.4844 129.974C74.2426 128.932 70.1596 127.326 66.3444 125.2L56.244 131.827L41.8391 117.943L48.1092 107.605C45.8559 103.866 44.113 99.8419 42.9269 95.6403L31.0666 93.1773L30.7169 73.1705L42.4646 70.2919C43.5082 66.0519 45.1139 61.9704 47.239 58.1558L40.6115 48.0553L54.5074 33.6621L64.8488 39.9283V39.9166ZM70.8974 63.3847C67.1907 67.2251 64.706 72.0784 63.7574 77.3308C62.8089 82.5833 63.4391 87.9991 65.5684 92.8934C67.6977 97.7877 71.2304 101.941 75.72 104.827C80.2095 107.714 85.4541 109.205 90.7907 109.111C96.1273 109.017 101.316 107.342 105.701 104.299C110.086 101.257 113.471 96.9817 115.426 92.0154C117.382 87.0492 117.821 81.6145 116.688 76.3987C115.555 71.1829 112.901 66.4201 109.062 62.7127C106.512 60.2506 103.502 58.3149 100.204 57.0161C96.9059 55.7174 93.3843 55.0811 89.8404 55.1435C86.2964 55.2059 82.7994 55.9658 79.5491 57.3799C76.2989 58.7939 73.359 60.8344 70.8974 63.3847Z"
    fill="#EBEBEB"
  />
  <path
    d="M70.8967 63.384C70.8967 63.384 71.2852 62.945 72.1204 62.1719C74.2094 60.2366 76.5985 58.6531 79.1946 57.483C80.4855 56.8931 81.8224 56.4097 83.1921 56.0378C86.5405 55.1275 90.0318 54.8638 93.479 55.2609C97.6663 55.749 101.681 57.2126 105.199 59.5341C108.177 61.5048 110.743 64.0354 112.755 66.9852C113.458 68.0284 114.09 69.1173 114.647 70.2445C117.001 75.0624 117.875 80.4698 117.157 85.7837C116.972 87.1698 116.677 88.5389 116.275 89.8783C115.879 91.2424 115.368 92.5706 114.748 93.8486C112.221 99.1257 108.053 103.443 102.869 106.156C101.612 106.82 100.302 107.377 98.9527 107.822C97.6284 108.27 96.271 108.612 94.8931 108.848C89.6073 109.758 84.1705 109.082 79.2684 106.905C78.1241 106.386 77.0146 105.793 75.9469 105.13C72.9287 103.222 70.3098 100.745 68.2356 97.8383C65.7984 94.401 64.2017 90.4398 63.5738 86.2732C63.0571 82.8423 63.1995 79.3444 63.9934 75.9669C64.3163 74.5738 64.7528 73.2095 65.2987 71.8878C65.7451 70.785 66.2643 69.713 66.8526 68.679C67.6847 67.2495 68.6485 65.9008 69.7312 64.6504C70.4771 63.7997 70.8967 63.384 70.8967 63.384L70.6053 63.7103C70.4189 63.9317 70.112 64.2347 69.7584 64.6737C68.6987 65.9337 67.7535 67.2858 66.9342 68.7139C66.3452 69.7463 65.8261 70.8171 65.3803 71.9189C64.8449 73.2276 64.4162 74.5774 64.0983 75.9552C63.3179 79.318 63.186 82.7988 63.7098 86.2111C64.3468 90.3525 65.9432 94.2876 68.3716 97.7023C69.7213 99.5968 71.3104 101.309 73.0994 102.795C74.0325 103.573 75.0162 104.288 76.044 104.936C77.1054 105.594 78.2084 106.181 79.3461 106.696C85.5181 109.439 92.4934 109.771 98.8983 107.628C100.237 107.184 101.537 106.629 102.783 105.969C107.928 103.275 112.064 98.9894 114.574 93.7515C115.19 92.4838 115.699 91.166 116.092 89.8123C116.49 88.4828 116.782 87.1241 116.967 85.7488C117.68 80.4734 116.818 75.1049 114.488 70.3184C113.934 69.1997 113.307 68.1187 112.612 67.0823C111.931 66.0751 111.182 65.1159 110.37 64.2114C108.822 62.4758 107.055 60.948 105.114 59.6662C101.615 57.3531 97.6243 55.8898 93.4596 55.3929C90.0308 54.9922 86.557 55.2467 83.2232 56.1427C81.8561 56.5066 80.5216 56.9835 79.2335 57.5684C76.6408 58.7246 74.2488 60.2864 72.1476 62.1952C71.7203 62.5643 71.4289 62.8828 71.2152 63.0771L70.8967 63.384Z"
    fill="#263238"
  />
  <path
    d="M64.8479 39.9159L54.491 33.677H54.5299C50.9986 37.3481 46.3174 42.2041 40.6495 48.0857V48.0235L47.2847 58.124L47.3041 58.1551L47.2847 58.1862C45.1739 61.999 43.5776 66.0746 42.5375 70.3067V70.3456H42.4986L30.7549 73.2281L30.8093 73.1582C30.9219 79.4555 31.0424 86.1412 31.1667 93.1649L31.1045 93.0872L42.926 95.558H42.9726V95.6046C44.1658 99.7982 45.9125 103.814 48.1666 107.546L48.1938 107.593L48.1666 107.64L41.9159 117.989V117.876L56.313 131.772H56.1965L66.2969 125.145L66.3436 125.11L66.3941 125.141C70.2048 127.257 74.2792 128.858 78.5108 129.903H78.569V129.958C79.4742 133.641 80.457 137.654 81.4515 141.706L81.3544 141.632L101.357 141.278L101.26 141.36C102.037 137.619 102.88 133.59 103.727 129.519V129.457H103.785C107.974 128.266 111.986 126.523 115.715 124.274L115.77 124.239L115.82 124.274L126.158 130.541H126.034L139.929 116.147V116.272L133.306 106.171L133.271 106.121L133.302 106.066C135.435 102.258 137.05 98.1818 138.104 93.9458V93.8875H138.162L149.91 91.0089L149.836 91.106C149.717 84.2765 149.6 77.6076 149.486 71.0993L149.56 71.1886L137.715 68.7062H137.661V68.6557C136.473 64.4602 134.729 60.4425 132.475 56.7099L132.447 56.6633L132.475 56.6206L138.745 46.287V46.388L124.371 32.4882H124.464L114.364 39.1118L114.329 39.1351L114.29 39.1157C110.48 36.9921 106.404 35.3865 102.169 34.3413H102.13V34.3024C101.089 30.0291 100.149 26.1871 99.2595 22.5548L99.3177 22.6014L79.311 22.9355L79.3576 22.9005C78.3631 27.6439 77.5512 31.5248 76.8791 34.7375C73.7195 35.6294 70.6572 36.8359 67.7382 38.3387C66.7748 38.8321 66.0716 39.2361 65.6054 39.5042C65.1393 39.7722 64.9101 39.8926 64.9101 39.8926L65.5977 39.477C66.06 39.205 66.7631 38.7971 67.7227 38.3115C70.6381 36.7919 73.7009 35.5736 76.8636 34.6754L76.8403 34.6987C77.5046 31.482 78.3087 27.6011 79.2916 22.8539V22.8189H79.3266L99.3333 22.4538H99.3799V22.5004C100.27 26.1288 101.217 29.9747 102.266 34.2441L102.216 34.1936C106.463 35.2398 110.552 36.8467 114.375 38.9719H114.301C117.514 36.8586 120.851 34.6715 124.402 32.3406L124.456 32.3056L124.499 32.3484L138.881 46.2482L138.927 46.2948L138.892 46.3531L132.61 56.6983V56.6089C134.873 60.3539 136.625 64.3845 137.82 68.5936L137.75 68.5314L149.591 70.9905H149.665V71.0643C149.781 77.5674 149.9 84.2364 150.022 91.071V91.1487H149.948L138.201 94.0312L138.275 93.9613C137.228 98.2096 135.618 102.299 133.488 106.121V106.02C135.674 109.355 137.883 112.722 140.116 116.12L140.163 116.186L140.104 116.245L126.208 130.618L126.154 130.677L126.084 130.634L115.747 124.368H115.851C112.107 126.625 108.08 128.374 103.875 129.569L103.948 129.492C103.102 133.559 102.259 137.595 101.482 141.333V141.41H101.4L81.3972 141.76H81.3156L81.2962 141.682C80.3055 137.63 79.3188 133.617 78.4175 129.935L78.4913 130.008C74.243 128.958 70.1528 127.349 66.328 125.222H66.429L56.3285 131.85L56.2664 131.889L56.212 131.838L41.8382 117.934L41.7877 117.888L41.8266 117.826L48.0928 107.488V107.581C45.8339 103.834 44.0846 99.8025 42.891 95.5929L42.9532 95.6512L31.0501 93.2543H30.988V93.1882C30.8676 86.1684 30.751 79.4827 30.6461 73.1854V73.1271H30.7044L42.452 70.2524L42.4015 70.3029C43.4531 66.0483 45.0665 61.9527 47.1993 58.124V58.1862L40.5951 48.0857L40.5718 48.0507L40.6029 48.0235L54.5105 33.6498H54.5299H54.5532L64.8479 39.9159Z"
    fill="#263238"
  />
  <path
    d="M74.2265 21.1758C76.5573 18.3205 80.2207 16.7976 83.8802 16.3664C85.4341 16.1838 86.4053 16.4519 87.901 16.8559C89.401 17.2132 90.7263 18.0898 91.642 19.3305C92.7026 20.8339 93.5844 22.5199 93.7942 24.3536C94.0592 26.2279 94.1502 28.1227 94.0661 30.0137C93.9797 31.914 93.3693 33.7533 92.3024 35.3281L87.5008 36.1478C84.8514 36.2372 82.1631 36.3265 79.5797 35.7205C76.9963 35.1145 74.4867 33.7276 73.1037 31.4472C71.1847 28.3355 71.8956 24.0273 74.2265 21.1758Z"
    fill="#263238"
  />
  <path
    d="M90.7095 38.1213C90.7095 38.1213 90.7872 38.2378 90.997 38.3738C91.2974 38.5561 91.6343 38.6702 91.9837 38.7079C92.5125 38.7657 93.0462 38.657 93.5104 38.3971C94.0736 38.0556 94.4838 37.5105 94.656 36.8747C94.8281 36.2389 94.749 35.5613 94.435 34.9823C94.1641 34.5236 93.7566 34.1609 93.2696 33.9451C92.949 33.7995 92.5998 33.7278 92.2479 33.7353C92.1141 33.7249 91.98 33.7504 91.8594 33.8091C92.3119 33.8322 92.756 33.9402 93.1685 34.1277C93.5973 34.3492 93.9523 34.6907 94.1903 35.1105C94.4558 35.6327 94.5182 36.2348 94.3653 36.8003C94.2125 37.3658 93.8552 37.8545 93.3628 38.1718C92.9459 38.4127 92.4685 38.5287 91.9876 38.5058C91.5413 38.4583 91.1079 38.3279 90.7095 38.1213Z"
    fill="#C5221F"
  />
  <path
    d="M69.6619 34.5433C69.706 33.9959 69.8753 33.4659 70.1569 32.9944C70.4385 32.5229 70.8247 32.1224 71.2857 31.824C71.7532 31.5407 72.2986 31.4133 72.8433 31.46C73.3879 31.5068 73.9035 31.7254 74.3159 32.0843L75.0734 32.9855C75.6543 33.2568 76.1371 33.701 76.4557 34.2574C76.7742 34.8138 76.9129 35.4551 76.8527 36.0934C76.7654 36.7324 76.4975 37.3333 76.0805 37.8254C75.6634 38.3174 75.1146 38.6802 74.4985 38.871C73.8778 39.0454 73.2228 39.0573 72.5963 38.9056C71.9697 38.7539 71.3927 38.4437 70.9206 38.0047C70.462 37.561 70.1104 37.0187 69.8923 36.4191C69.6743 35.8194 69.5955 35.178 69.6619 34.5433Z"
    fill="#263238"
  />
  <path
    d="M70.6134 37.7794C70.4291 37.4959 70.3394 37.1614 70.357 36.8237C70.3958 36.2099 70.8426 35.4058 71.4525 34.6677C71.9877 34.0309 72.6406 33.5033 73.3755 33.1137C73.9388 32.8107 74.3272 32.7019 74.3156 32.6631C73.9622 32.6939 73.6187 32.7956 73.3055 32.9622C72.521 33.3224 71.8269 33.8533 71.2738 34.5162C70.9668 34.8704 70.7057 35.262 70.4968 35.6816C70.3111 36.0279 70.2062 36.4117 70.1899 36.8043C70.1803 37.079 70.2548 37.3501 70.4036 37.5813C70.5085 37.7367 70.6056 37.791 70.6134 37.7794Z"
    fill="#174EA6"
  />
  <path
    d="M72.9366 39.1973C73.0143 39.1973 72.688 37.7405 73.1503 36.0273C73.6125 34.3141 74.5837 33.2031 74.5177 33.1604C74.2614 33.3539 74.045 33.5954 73.8806 33.8713C73.442 34.5099 73.1173 35.2196 72.9211 35.9691C72.724 36.7174 72.6595 37.4944 72.7307 38.265C72.7398 38.586 72.8097 38.9024 72.9366 39.1973Z"
    fill="#174EA6"
  />
  <path
    d="M87.5005 43.9524C87.4694 42.2664 87.4306 40.8873 87.4306 40.895C87.4306 40.9028 91.3465 40.4638 92.4264 35.4563C92.9626 32.9623 93.0636 28.8288 93.0364 25.4452C93.0131 22.3956 90.418 18.2466 86.6575 18.235L84.9832 18.0407L78.5849 20.5853C78.1392 20.6074 77.7181 20.7963 77.4051 21.1143C77.0921 21.4323 76.9101 21.8564 76.895 22.3024L76.8717 44.0573L83.2622 59.9849L87.3257 52.7243L87.5005 43.9524Z"
    fill="#A8605D"
  />
  <path
    d="M84.9016 34.2753C84.9299 34.0932 85.0039 33.9213 85.1166 33.7754C85.2293 33.6296 85.3771 33.5147 85.5462 33.4414C85.7153 33.3681 85.9002 33.3388 86.0836 33.3562C86.2671 33.3737 86.4432 33.4373 86.5954 33.5411C86.8014 33.6998 86.9615 33.9105 87.0591 34.1515C87.1567 34.3925 87.1884 34.6551 87.1509 34.9125C87.0407 35.0669 86.8988 35.1959 86.7346 35.2911C86.5705 35.3862 86.3879 35.4452 86.1992 35.4641C86.1397 35.468 86.08 35.468 86.0205 35.4641C85.7215 35.465 85.4336 35.3509 85.2163 35.1455C85.101 35.034 85.0128 34.8977 84.9582 34.7469C84.9037 34.5961 84.8844 34.4348 84.9016 34.2753Z"
    fill="#844949"
  />
  <path
    d="M91.5601 29.3844C91.553 29.5537 91.48 29.7135 91.3565 29.8297C91.2331 29.9459 91.0691 30.0091 90.8997 30.0059C90.8168 30.008 90.7343 29.9934 90.657 29.9631C90.5798 29.9328 90.5095 29.8874 90.4501 29.8295C90.3907 29.7715 90.3435 29.7023 90.3113 29.6259C90.2791 29.5494 90.2625 29.4673 90.2626 29.3844C90.2696 29.215 90.3427 29.0552 90.4661 28.939C90.5896 28.8228 90.7535 28.7596 90.923 28.7628C91.0059 28.7607 91.0884 28.7753 91.1656 28.8056C91.2428 28.8359 91.3132 28.8813 91.3726 28.9393C91.432 28.9972 91.4791 29.0664 91.5113 29.1428C91.5435 29.2193 91.5601 29.3014 91.5601 29.3844Z"
    fill="#263238"
  />
  <path
    d="M91.7894 27.3137C91.7078 27.3952 91.2339 27.0029 90.5346 26.9679C89.8353 26.933 89.307 27.2515 89.2371 27.1622C89.1672 27.0728 89.2915 26.9757 89.5207 26.8242C89.8346 26.63 90.2013 26.539 90.5696 26.5639C90.9338 26.5852 91.2819 26.7212 91.5641 26.9524C91.77 27.1233 91.8321 27.2787 91.7894 27.3137Z"
    fill="#263238"
  />
  <path
    d="M87.4039 32.6048C87.7787 32.5108 88.1635 32.4625 88.5499 32.4611C88.7286 32.4611 88.8995 32.4261 88.9384 32.3096C88.9642 32.126 88.933 31.9388 88.849 31.7735C88.7066 31.3306 88.5551 30.8683 88.3945 30.3866C87.769 28.4131 87.3262 26.7932 87.4078 26.7699C87.4893 26.7466 88.0604 28.3238 88.6859 30.2973L89.1132 31.6919C89.2159 31.912 89.2352 32.1618 89.1676 32.3951C89.1389 32.4569 89.0963 32.5112 89.043 32.5536C88.9897 32.5961 88.9273 32.6256 88.8607 32.6398C88.7614 32.663 88.6594 32.6721 88.5577 32.667C88.172 32.6956 87.7842 32.6747 87.4039 32.6048Z"
    fill="#263238"
  />
  <path
    d="M87.4309 40.8951C85.0459 40.8017 82.7339 40.0472 80.7529 38.7157C80.7529 38.7157 82.3651 42.3247 87.4581 42.1266L87.4309 40.8951Z"
    fill="#844949"
  />
  <path
    d="M85.3213 32.9739C85.4339 32.9739 85.3951 33.7508 86.0128 34.3064C86.6304 34.8619 87.4424 34.8425 87.4462 34.9474C87.4462 34.994 87.2559 35.0833 86.914 35.0756C86.4695 35.0572 86.0458 34.8825 85.7175 34.5822C85.4024 34.2951 85.2115 33.8966 85.1853 33.4711C85.1736 33.1526 85.2708 32.97 85.3213 32.9739Z"
    fill="#263238"
  />
  <path
    d="M91.6229 24.8041C91.4908 24.9556 91.0169 24.7652 90.4575 24.7264C89.898 24.6875 89.3814 24.773 89.292 24.6021C89.2493 24.5166 89.3347 24.3612 89.5562 24.2136C89.8542 24.0502 90.1939 23.9785 90.5326 24.0076C90.8713 24.0366 91.1938 24.165 91.4597 24.3768C91.6229 24.5632 91.6812 24.7303 91.6229 24.8041Z"
    fill="#263238"
  />
  <path
    d="M83.8839 29.0503C83.8796 29.2198 83.9419 29.3842 84.0573 29.5084C84.1728 29.6325 84.3322 29.7066 84.5016 29.7146C84.5839 29.7226 84.6669 29.7141 84.7459 29.6896C84.8248 29.6651 84.8981 29.6251 84.9614 29.5719C85.0247 29.5187 85.0768 29.4534 85.1146 29.3799C85.1524 29.3063 85.1751 29.226 85.1814 29.1436C85.1857 28.9737 85.1235 28.8088 85.0082 28.6841C84.8929 28.5593 84.7334 28.4844 84.5637 28.4754C84.481 28.4668 84.3974 28.4751 84.318 28.4996C84.2386 28.5242 84.1649 28.5645 84.1014 28.6182C84.038 28.6718 83.986 28.7378 83.9486 28.8121C83.9112 28.8863 83.8892 28.9674 83.8839 29.0503Z"
    fill="#263238"
  />
  <path
    d="M82.2211 27.0652C82.2988 27.1507 82.7999 26.7933 83.4992 26.8088C84.1984 26.8243 84.7035 27.1973 84.7812 27.0963C84.8589 26.9953 84.7384 26.9059 84.517 26.7389C84.2198 26.5228 83.8627 26.4046 83.4953 26.4009C83.1305 26.3943 82.7729 26.5031 82.4736 26.7117C82.256 26.8748 82.1822 27.0264 82.2211 27.0652Z"
    fill="#263238"
  />
  <path
    d="M82.7222 25.6589C82.8427 25.8221 83.3283 25.6589 83.9071 25.6589C84.4859 25.6589 84.9754 25.7832 85.0725 25.6201C85.1269 25.5385 85.0492 25.3792 84.8394 25.2316C84.5553 25.0438 84.2204 24.9475 83.8799 24.9558C83.5416 24.9614 83.2133 25.0713 82.9398 25.2704C82.7378 25.4336 82.6678 25.5968 82.7222 25.6589Z"
    fill="#263238"
  />
  <path
    d="M76.8873 29.4427L77.7614 30.3517C81.5452 26.7272 88.9419 17.6601 88.5301 18.2001C86.8052 17.5544 84.9457 17.3526 83.1225 17.6135C80.3099 18.0913 74.9644 19.4976 75.0537 22.8191C75.1431 26.1406 76.8873 29.4427 76.8873 29.4427Z"
    fill="#263238"
  />
  <path
    d="M74.3546 32.3097C74.3833 32.0439 74.395 31.7766 74.3896 31.5094C74.4212 30.7849 74.5174 30.0646 74.6771 29.3572C75.2363 27.0227 76.3564 24.8599 77.9403 23.0561C79.5409 21.2679 81.4066 19.7363 83.4723 18.5147C84.2492 18.033 84.9096 17.6717 85.3603 17.4231C85.6013 17.3109 85.8337 17.1811 86.0557 17.0346C85.9874 17.0469 85.9218 17.0705 85.8614 17.1045C85.7371 17.1628 85.5506 17.2405 85.3175 17.3571C84.8514 17.5785 84.1871 17.9242 83.3751 18.3865C81.2641 19.5774 79.3636 21.1077 77.7499 22.9162C76.1396 24.7462 75.0218 26.9562 74.5023 29.3378C74.3557 30.0562 74.2828 30.7878 74.2847 31.521C74.2847 31.7813 74.308 31.9833 74.3158 32.1193C74.3207 32.1841 74.3338 32.2481 74.3546 32.3097Z"
    fill="#174EA6"
  />
  <path
    d="M83.884 16.817C83.8137 16.8285 83.7456 16.8508 83.682 16.883C83.5538 16.9296 83.3634 17.0112 83.1265 17.12C82.6448 17.3336 81.961 17.6639 81.1375 18.1223C80.1745 18.6595 79.242 19.2496 78.3443 19.8899C77.2261 20.6576 76.2025 21.5547 75.2947 22.5626C74.8266 23.0981 74.4344 23.6955 74.1293 24.3379C73.8555 24.9387 73.6647 25.5738 73.5621 26.226C73.4017 27.3247 73.4017 28.4409 73.5621 29.5397C73.6642 30.2755 73.8042 31.0055 73.9817 31.7268C74.0399 31.9832 74.0943 32.1775 74.1293 32.3134C74.1425 32.3826 74.1661 32.4494 74.1992 32.5116C74.1762 32.2407 74.1333 31.972 74.071 31.7074C73.9778 31.1907 73.834 30.4449 73.7291 29.5164C73.5916 28.4347 73.6047 27.3391 73.768 26.2609C73.8733 25.6299 74.0627 25.0158 74.3313 24.4351C74.6255 23.813 75.0032 23.234 75.454 22.7141C76.348 21.7207 77.3529 20.833 78.4492 20.0686C79.3417 19.4252 80.2661 18.8275 81.219 18.2777C82.0271 17.8037 82.6992 17.4541 83.1614 17.2132C83.4101 17.0958 83.6514 16.9635 83.884 16.817Z"
    fill="#174EA6"
  />
  <path
    d="M76.8174 29.5436C76.9808 29.4115 77.1316 29.2645 77.268 29.1047L78.4335 27.8576C79.4085 26.801 80.741 25.3247 82.2056 23.6892C83.6702 22.0537 84.9832 20.5581 85.9272 19.4703L87.0344 18.1728C87.1797 18.02 87.3098 17.8535 87.4229 17.6756C87.2595 17.8049 87.1098 17.9507 86.9761 18.1107L85.8107 19.3577C84.8356 20.4182 83.4798 21.8906 82.0386 23.53C80.5973 25.1694 79.257 26.6611 78.3169 27.7489L77.2097 29.0464C77.0627 29.1986 76.9312 29.3652 76.8174 29.5436Z"
    fill="#174EA6"
  />
  <path
    d="M77.6334 30.9033C77.6334 30.5148 77.2449 29.6135 76.8992 29.5319C75.9124 29.3221 74.1177 29.3066 73.9623 31.8278C73.7486 35.2775 77.2566 34.7803 77.2682 34.6793C77.2799 34.5783 77.5635 32.2047 77.6334 30.9033Z"
    fill="#A8605D"
  />
  <path
    d="M76.5223 33.2614C76.5223 33.2614 76.4602 33.2964 76.3553 33.3391C76.2119 33.3964 76.0519 33.3964 75.9085 33.3391C75.5511 33.1837 75.2792 32.5855 75.3025 31.9639C75.3103 31.6671 75.3861 31.3761 75.5239 31.1131C75.562 31.0076 75.6256 30.913 75.7089 30.8378C75.7923 30.7626 75.8928 30.7091 76.0017 30.6819C76.0716 30.6682 76.144 30.6788 76.2069 30.712C76.2699 30.7453 76.3195 30.7991 76.3475 30.8645C76.3863 30.9655 76.3475 31.0316 76.3786 31.0393C76.4096 31.0471 76.4563 30.9888 76.4368 30.8412C76.4224 30.7561 76.3801 30.6782 76.3164 30.6198C76.2714 30.5805 76.219 30.5506 76.1623 30.532C76.1056 30.5133 76.0457 30.5061 75.9862 30.511C75.8428 30.5306 75.7068 30.5865 75.5912 30.6736C75.4756 30.7606 75.3842 30.8758 75.3258 31.0083C75.1624 31.2982 75.0718 31.6235 75.0616 31.9561C75.0383 32.6515 75.3569 33.3236 75.8386 33.5101C75.9297 33.5421 76.0268 33.5534 76.1229 33.5434C76.219 33.5333 76.3116 33.502 76.3941 33.4518C76.5107 33.343 76.534 33.2653 76.5223 33.2614Z"
    fill="#844949"
  />
  <path
    d="M76.9689 38.4127C76.9689 38.4127 76.8873 38.5331 76.6814 38.6652C76.3798 38.8481 76.0415 38.9622 75.6908 38.9993C75.162 39.0563 74.6285 38.9477 74.164 38.6885C73.6 38.3478 73.1894 37.8023 73.0178 37.1661C72.8463 36.5298 72.9271 35.8519 73.2433 35.2738C73.5142 34.815 73.9217 34.4524 74.4088 34.2365C74.7293 34.091 75.0785 34.0193 75.4305 34.0268C75.6791 34.0268 75.819 34.085 75.819 34.1006C75.3665 34.1236 74.9223 34.2317 74.5098 34.4191C74.0822 34.6409 73.7285 34.9824 73.492 35.402C73.2181 35.9216 73.1541 36.5265 73.3133 37.0919C73.464 37.6594 73.8233 38.1492 74.3194 38.4632C74.7356 38.7059 75.2135 38.822 75.6947 38.7973C76.1394 38.7484 76.5714 38.618 76.9689 38.4127Z"
    fill="#C5221F"
  />
  <path
    d="M96.3773 140.307L95.173 129.873L85.4999 132.58L87.9395 142.587L96.3773 140.307Z"
    fill="#A8605D"
  />
  <path
    d="M96.4864 140.26L98.1219 152.424L102.189 161.67C102.258 161.827 102.294 161.998 102.294 162.17C102.295 162.342 102.26 162.512 102.193 162.671C102.125 162.829 102.026 162.972 101.901 163.09C101.776 163.209 101.628 163.3 101.467 163.359C101.278 163.427 101.076 163.448 100.877 163.422C100.679 163.396 100.489 163.322 100.325 163.208C98.1957 161.728 90.3872 156.239 90.3173 155.341C90.2357 154.3 87.7378 142.626 87.7378 142.626L96.4864 140.26Z"
    fill="#C5221F"
  />
  <g opacity="0.6">
    <path
      opacity="0.6"
      d="M101.467 163.375L90.2008 154.537L90.2824 155.05C90.348 155.491 90.5683 155.894 90.904 156.188C91.8169 156.965 94.3808 159.078 100.286 163.227C100.454 163.344 100.648 163.418 100.851 163.443C101.054 163.468 101.26 163.443 101.451 163.371L101.467 163.375Z"
      fill="white"
    />
  </g>
  <g opacity="0.6">
    <path
      opacity="0.6"
      d="M92.0576 150.237C92.2214 150.325 92.348 150.469 92.4143 150.643C92.4806 150.817 92.4822 151.009 92.4189 151.184C92.3385 151.354 92.1963 151.486 92.0214 151.554C91.8466 151.622 91.6525 151.62 91.4788 151.55C91.3015 151.459 91.1638 151.307 91.0921 151.121C91.0204 150.935 91.0197 150.73 91.0903 150.543C91.1947 150.379 91.3575 150.259 91.5461 150.209C91.7347 150.158 91.9353 150.181 92.1081 150.272"
      fill="white"
    />
  </g>
  <path
    d="M97.8576 158.519C97.9314 158.542 98.1062 157.862 98.7744 157.408C99.4426 156.953 100.122 156.996 100.126 156.922C100.13 156.849 99.9631 156.817 99.6718 156.825C99.2928 156.839 98.9263 156.964 98.619 157.186C98.3064 157.404 98.0636 157.708 97.9197 158.061C97.8187 158.329 97.8265 158.519 97.8576 158.519Z"
    fill="#263238"
  />
  <path
    d="M98.9768 160.003C99.0428 160.046 99.3653 159.591 99.9713 159.312C100.577 159.032 101.137 159.051 101.137 158.97C101.137 158.888 100.538 158.741 99.8625 159.067C99.1866 159.393 98.9108 159.98 98.9768 160.003Z"
    fill="#263238"
  />
  <path
    d="M95.9229 156.689C95.9889 156.736 96.4862 156.033 97.3797 155.524C98.2732 155.015 99.1239 154.902 99.1123 154.821C99.1006 154.739 98.1955 154.728 97.2437 155.291C96.2919 155.854 95.8607 156.662 95.9229 156.689Z"
    fill="#263238"
  />
  <path
    d="M95.1151 153.034C95.1618 153.1 95.7872 152.715 96.6691 152.544C97.5509 152.373 98.2579 152.478 98.2735 152.397C98.289 152.315 97.5431 152.09 96.6147 152.28C95.6862 152.47 95.0685 152.983 95.1151 153.034Z"
    fill="#263238"
  />
  <path
    d="M94.5481 149.475C94.5947 149.537 95.2046 149.029 96.1331 148.924C97.0616 148.819 97.7725 149.149 97.8036 149.075C97.8347 149.001 97.6637 148.916 97.3568 148.799C96.9548 148.651 96.5228 148.603 96.0982 148.659C95.6742 148.711 95.2683 148.861 94.9133 149.098C94.6452 149.285 94.5248 149.452 94.5481 149.475Z"
    fill="#263238"
  />
  <path
    d="M96.0043 148.252C96.0189 148.095 95.999 147.937 95.9461 147.789C95.8389 147.376 95.6515 146.988 95.3944 146.647C95.2271 146.38 94.9756 146.176 94.6796 146.068C94.5796 146.042 94.4738 146.046 94.3765 146.082C94.2792 146.117 94.1951 146.182 94.1357 146.266C94.0311 146.44 93.9937 146.646 94.0308 146.845C94.1227 147.248 94.3521 147.607 94.6796 147.859C95.0072 148.112 95.4124 148.242 95.8256 148.228C96.2332 148.205 96.6247 148.061 96.9504 147.814C97.2761 147.568 97.5215 147.231 97.6554 146.845C97.6898 146.749 97.7024 146.646 97.6924 146.543C97.6823 146.441 97.6498 146.343 97.5971 146.255C97.5362 146.17 97.4498 146.107 97.3506 146.075C97.2514 146.043 97.1444 146.043 97.0454 146.076C96.757 146.187 96.5035 146.374 96.3112 146.616C96.0232 146.931 95.793 147.294 95.6314 147.688C95.5636 147.828 95.5228 147.98 95.5109 148.135C95.7571 147.631 96.0736 147.164 96.4511 146.748C96.626 146.544 96.849 146.386 97.0998 146.29C97.1541 146.272 97.2126 146.272 97.267 146.289C97.3214 146.307 97.3689 146.341 97.4029 146.387C97.4291 146.448 97.4427 146.514 97.4427 146.581C97.4427 146.648 97.4291 146.714 97.4029 146.775C97.2752 147.102 97.0566 147.386 96.773 147.592C96.4893 147.799 96.1525 147.92 95.8023 147.941C95.4494 147.952 95.1033 147.843 94.8208 147.631C94.5384 147.419 94.3365 147.117 94.2484 146.775C94.2219 146.643 94.2426 146.506 94.3067 146.387C94.3377 146.338 94.3834 146.301 94.4372 146.28C94.491 146.259 94.55 146.255 94.6058 146.27C94.8528 146.364 95.0655 146.531 95.2157 146.748C95.565 147.199 95.8319 147.708 96.0043 148.252Z"
    fill="#263238"
  />
  <path
    d="M126.449 81.5495C117.903 79.9956 100.32 84.2922 100.32 84.2922L96.5559 79.9839H76.7434L73.3015 88.0566L82.6872 102.042L84.8821 110.281C84.8821 110.281 94.1668 108.813 93.7744 108.86C93.3821 108.906 99.7298 107.543 100.114 107.492C115.599 105.379 123.858 98.8524 128.473 94.2373C133.182 89.5056 129.709 82.14 126.449 81.5495Z"
    fill="#263238"
  />
  <path
    d="M86.4908 111.618C86.4481 111.338 86.3238 110.588 86.0713 109.05C85.9353 108.226 85.7644 107.224 85.5468 106.07C85.4342 105.495 85.3137 104.882 85.1584 104.237C85.0845 103.914 85.0068 103.58 84.9136 103.242C84.8631 103.075 84.8126 102.904 84.7505 102.733C84.6976 102.55 84.6091 102.378 84.4902 102.228L84.463 102.353C88.1458 101.043 92.7454 99.3186 97.6519 97.248C100.67 95.966 103.514 94.6685 106.02 93.3204C107.215 92.6986 108.362 91.987 109.45 91.1916C110.468 90.4418 111.373 89.692 112.224 89.0355C113.521 87.9477 114.992 87.0862 116.575 86.4871C116.829 86.3961 117.088 86.3208 117.352 86.2617C117.539 86.2086 117.73 86.167 117.923 86.1374L118.276 86.0753C118.318 86.07 118.358 86.0596 118.397 86.0442C118.355 86.0416 118.314 86.0416 118.272 86.0442L117.915 86.0908C117.721 86.113 117.529 86.148 117.34 86.1957C117.077 86.251 116.818 86.3211 116.563 86.4055C115.866 86.631 115.195 86.9306 114.562 87.299C113.723 87.7824 112.92 88.325 112.158 88.9228C111.299 89.5716 110.386 90.3136 109.372 91.0556C108.285 91.8391 107.141 92.5416 105.95 93.1573C103.448 94.4936 100.604 95.7834 97.5936 97.0654C92.691 99.1321 88.0953 100.872 84.4241 102.197L84.3231 102.236L84.4008 102.325C84.4996 102.461 84.5757 102.612 84.6261 102.772C84.6883 102.939 84.7388 103.106 84.7854 103.273C84.8825 103.604 84.9641 103.934 85.0379 104.256C85.1894 104.897 85.3176 105.511 85.4264 106.082C85.6556 107.247 85.8382 108.23 85.9858 109.05C86.1334 109.87 86.2578 110.499 86.3393 110.946C86.3821 111.163 86.417 111.334 86.4442 111.439C86.4714 111.544 86.4908 111.618 86.4908 111.618Z"
    fill="#174EA6"
  />
  <path
    d="M74.2845 81.6L74.1096 84.23C74.1096 84.23 71.8837 88.4412 71.6816 92.2094C71.5612 94.4004 71.5146 97.6287 71.4952 99.9479C71.4779 101.816 71.9941 103.65 72.983 105.235L78.8452 110.674L82.4736 124.073L87.1354 140.276L96.8474 137.766L95.4294 103.724C95.3945 99.0622 93.2734 93.6235 90.6201 87.9672L89.7071 80.4812L74.2845 81.6Z"
    fill="#263238"
  />
  <path
    d="M96.8518 132.934C96.8394 132.887 96.8316 132.839 96.8285 132.79C96.8285 132.677 96.8091 132.538 96.7935 132.363C96.7702 131.974 96.7353 131.419 96.6886 130.723C96.6071 129.274 96.4944 127.227 96.3507 124.69C96.0943 119.574 95.7369 112.542 95.3445 104.777C95.2202 102.834 95.2668 100.919 94.855 99.1438C94.4715 97.4334 93.8059 95.7989 92.8854 94.3072C92.0472 92.9597 91.0068 91.7491 89.8009 90.7176C88.7416 89.826 87.5652 89.0836 86.3046 88.5111C84.4784 87.6712 82.5083 87.1885 80.5007 87.0892C79.9559 87.0614 79.41 87.0614 78.8652 87.0892L78.4378 87.1086H78.2786C79.0108 86.9944 79.7524 86.9515 80.4929 86.9804C82.5227 87.0412 84.5209 87.4991 86.3745 88.3285C87.6567 88.8965 88.8542 89.6391 89.933 90.535C91.1666 91.5747 92.2309 92.8002 93.0874 94.1673C94.0312 95.6808 94.7141 97.342 95.1075 99.0816C95.531 100.9 95.496 102.823 95.6087 104.757C95.9699 112.527 96.2963 119.558 96.5332 124.675C96.6381 127.208 96.7236 129.267 96.7819 130.712C96.8052 131.411 96.8246 131.959 96.8363 132.355C96.8363 132.53 96.8363 132.67 96.8363 132.782C96.8477 132.832 96.8529 132.883 96.8518 132.934Z"
    fill="#174EA6"
  />
  <path
    d="M90.1189 111.664C90.049 111.63 90.6511 110.231 91.4592 108.533C92.2672 106.836 92.9859 105.492 93.0558 105.523C93.1258 105.554 92.5236 106.96 91.7117 108.654C90.8998 110.348 90.1889 111.699 90.1189 111.664Z"
    fill="#174EA6"
  />
  <path
    d="M83.3557 107.03C83.4295 107.003 83.7441 107.655 84.0394 108.487C84.3346 109.318 84.5328 110.013 84.4628 110.041C84.3929 110.068 84.0743 109.415 83.7752 108.584C83.4761 107.752 83.2819 107.057 83.3557 107.03Z"
    fill="#174EA6"
  />
  <path
    d="M78.492 103.009C78.5135 103.098 78.5252 103.189 78.527 103.281C78.527 103.491 78.5542 103.747 78.5736 104.058C78.6125 104.773 78.663 105.74 78.7251 106.913C78.764 109.334 79.5021 112.593 80.314 116.186C81.1259 119.78 82.0117 123 82.7032 125.312C83.0411 126.477 83.3519 127.398 83.5695 128.031C83.7023 128.355 83.8152 128.688 83.9074 129.026C83.8551 128.951 83.812 128.87 83.7792 128.785C83.7054 128.626 83.5928 128.396 83.4685 128.07C83.2198 127.441 82.878 126.516 82.5128 125.37C81.7747 123.063 80.8851 119.842 80.0421 116.245C79.1991 112.647 78.5153 109.353 78.527 106.921C78.4843 105.709 78.4687 104.734 78.4648 104.054C78.4648 103.743 78.4648 103.487 78.4648 103.277C78.4593 103.187 78.4685 103.096 78.492 103.009Z"
    fill="#174EA6"
  />
  <path
    d="M100.456 86.2617C100.48 86.3083 99.9163 86.5453 99.151 87.1436C98.1628 87.93 97.357 88.9214 96.789 90.0494C96.2306 91.1845 95.8631 92.4038 95.7013 93.6584C95.5731 94.6218 95.5653 95.2317 95.5187 95.2317C95.4791 95.0929 95.4633 94.9484 95.4721 94.8044C95.4595 94.4156 95.4711 94.0263 95.507 93.639C95.6124 92.3466 95.9631 91.0862 96.5404 89.9251C97.1235 88.7598 97.979 87.7524 99.0344 86.9882C99.3522 86.7608 99.6919 86.5656 100.048 86.4055C100.175 86.3335 100.313 86.2848 100.456 86.2617Z"
    fill="#174EA6"
  />
  <path
    d="M114.982 85.5041C115.032 85.5702 114.17 86.2811 113.311 87.3339C112.453 88.3867 111.928 89.3734 111.855 89.3346C111.781 89.2957 112.204 88.239 113.094 87.1552C113.984 86.0713 114.943 85.4459 114.982 85.5041Z"
    fill="#174EA6"
  />
  <path
    d="M91.9993 92.8659C91.9527 92.8659 91.9993 92.1744 91.9682 91.0711C91.9029 89.6287 91.7341 88.1928 91.4632 86.7746L90.6552 82.5013C90.5199 81.9135 90.4316 81.316 90.391 80.7143C90.5893 81.2828 90.7426 81.866 90.8494 82.4585C91.0903 83.5463 91.436 85.0419 91.739 86.7318C92.0151 88.162 92.1581 89.6146 92.1663 91.0711C92.1646 91.5124 92.14 91.9533 92.0925 92.392C92.0851 92.5537 92.0537 92.7134 91.9993 92.8659Z"
    fill="#174EA6"
  />
  <path
    d="M91.9643 81.3941C91.9643 81.3941 92.0109 81.3242 92.143 81.2893C92.3311 81.2492 92.5273 81.2752 92.6985 81.3631C92.8326 81.4307 92.9455 81.5338 93.025 81.6612C93.1045 81.7887 93.1474 81.9355 93.1491 82.0856C93.1478 82.2724 93.0899 82.4544 92.9831 82.6077C92.8764 82.7609 92.7257 82.8783 92.5509 82.9442C92.3724 83.0031 92.1797 83.0023 92.0017 82.942C91.8237 82.8818 91.6701 82.7653 91.5641 82.6101C91.4758 82.4878 91.4239 82.3431 91.4142 82.1926C91.4046 82.042 91.4377 81.8918 91.5097 81.7593C91.5999 81.5878 91.751 81.4562 91.9332 81.3903C92.0614 81.3475 92.1352 81.3631 92.1391 81.3903C92.143 81.4175 91.8477 81.4874 91.6885 81.8564C91.6445 81.9673 91.6329 82.0883 91.6551 82.2055C91.6773 82.3226 91.7323 82.431 91.8137 82.5181C91.8951 82.6053 91.9996 82.6674 92.1149 82.6975C92.2303 82.7275 92.3519 82.7242 92.4654 82.6878C92.5862 82.6402 92.6907 82.5589 92.7665 82.4535C92.8423 82.3481 92.8861 82.2231 92.8927 82.0934C92.8977 81.9854 92.8737 81.8779 92.8231 81.7823C92.7726 81.6867 92.6974 81.6063 92.6053 81.5495C92.4105 81.4383 92.1883 81.3844 91.9643 81.3941Z"
    fill="#174EA6"
  />
  <path
    d="M93.0402 45.1411C93.0402 45.1411 99.3452 47.3594 100.033 51.3024C100.72 55.2455 103.949 69.4134 103.949 69.4134L122.984 71.8802L120.77 77.0276C120.77 77.0276 99.3568 78.1115 98.3585 77.0276C97.3601 75.9437 93.0402 45.1411 93.0402 45.1411Z"
    fill="#174EA6"
  />
  <path
    d="M73.7408 81.7282C74.0085 80.3693 74.3627 79.0289 74.8013 77.7152L71.6119 53.5867L69.3976 45.5491L76.5301 43.6067C79.1484 47.6352 86.8365 47.9615 87.9475 43.6067L93.0405 45.1412C93.0405 45.1412 100.538 58.7108 100.189 63.4502C99.8 68.6481 101.459 77.047 101.459 77.047C101.459 77.047 101.641 79.8169 99.7185 81.1144L73.7408 81.7282Z"
    fill="#174EA6"
  />
  <path
    d="M69.3975 45.5373C69.3975 45.5373 65.3845 47.6234 64.4366 51.5626C63.7529 54.3985 62.9371 72.0433 64.4366 75.1084C65.9362 78.1735 67.1133 80.1237 70.3454 80.6714C73.5776 81.2192 93.4755 80.4034 93.4755 80.4034L94.5438 72.7193L73.2979 69.557C73.2979 69.557 72.7656 53.7498 72.5209 52.6543"
    fill="#174EA6"
  />
  <path
    d="M76.5301 43.63C76.5301 43.63 76.1844 41.9945 76.5301 41.843C76.8759 41.6915 88.0641 42.1499 88.1418 42.5306C88.1819 43.0789 88.1819 43.6295 88.1418 44.1778C88.1418 44.1778 86.9181 47.2002 84.1055 47.4138C81.2929 47.6275 76.6778 44.7216 76.5301 43.63Z"
    fill="#174EA6"
  />
  <path
    d="M96.9254 73.6982L102.457 73.3098L105.111 75.1084L107.395 78.1852C107.291 78.333 107.138 78.4398 106.964 78.4873C106.79 78.5349 106.604 78.52 106.439 78.4455L107.29 79.4749C107.244 79.5678 107.179 79.65 107.099 79.7166C107.02 79.7832 106.927 79.8326 106.828 79.8617C106.728 79.8909 106.624 79.8992 106.521 79.8861C106.418 79.8731 106.319 79.8389 106.23 79.7857L106.754 80.5976C106.465 80.6948 106.152 80.6929 105.864 80.5923C105.577 80.4917 105.331 80.2981 105.165 80.0421C104.624 79.2707 104.031 78.5374 103.39 77.8472L101.366 77.1751L103.339 79.137L104.435 80.8773C104.435 80.8773 104.237 81.4251 103.836 81.1726C103.291 80.6759 102.788 80.134 102.333 79.5526L100.002 78.0686C100.002 78.0686 98.355 78.8145 97.8422 78.8223C97.3294 78.8301 95.6706 77.7695 95.6706 77.7695L94.0934 78.8145L94.5168 73.3098L96.9254 73.6982Z"
    fill="#A8605D"
  />
  <path
    d="M107.305 79.4556C107.054 79.2209 106.827 78.9605 106.629 78.6786C106.241 78.1775 105.697 77.4782 105.114 76.6935L104.559 75.9437L104.586 75.967C103.949 75.5785 103.397 75.2328 103.013 74.9803C102.797 74.8603 102.596 74.7156 102.414 74.5491C102.646 74.6307 102.868 74.7389 103.075 74.8715C103.463 75.0929 104.042 75.4154 104.691 75.7961L105.254 76.5459C105.837 77.3228 106.354 78.0415 106.719 78.566C106.946 78.8405 107.142 79.1388 107.305 79.4556Z"
    fill="#844949"
  />
  <path
    d="M106.638 80.384C106.416 80.1621 106.218 79.9172 106.047 79.6537C105.705 79.1875 105.239 78.5349 104.738 77.8045L104.244 77.0742L104.283 77.1091C103.572 76.7992 102.886 76.4369 102.228 76.0253C102.963 76.2752 103.678 76.5777 104.369 76.9304H104.392V76.9537L104.893 77.6763C105.394 78.4028 105.837 79.071 106.152 79.5604C106.346 79.815 106.509 80.0914 106.638 80.384Z"
    fill="#844949"
  />
  <path
    d="M73.6164 80.7687C73.6472 80.7637 73.6787 80.7637 73.7096 80.7687H73.9971L75.1042 80.7376L79.2765 80.6521L93.9067 80.4074L93.8173 80.4928C94.0116 78.0843 94.2252 75.4659 94.4467 72.7232L94.5321 72.832L89.4158 72.055L73.2861 69.6387H73.2084V69.5571C73.3811 65.4698 73.3123 61.3759 73.0026 57.2967C72.886 55.8166 72.7578 54.6589 72.6685 53.8703C72.6218 53.4818 72.5869 53.1827 72.5636 52.969C72.5636 52.8719 72.5636 52.7942 72.5364 52.7359C72.5092 52.6777 72.5364 52.6582 72.5364 52.6582C72.5364 52.6582 72.5364 52.6815 72.5364 52.732C72.5364 52.7825 72.5597 52.868 72.5752 52.9651C72.6063 53.1749 72.649 53.4779 72.7073 53.8625C72.8122 54.6395 72.9559 55.8049 73.0958 57.2889C73.4469 61.3683 73.5429 65.4657 73.3833 69.5571L73.3095 69.4678L89.443 71.8569L94.5593 72.6339H94.6487V72.7271C94.4234 75.4465 94.2058 78.0765 94.0038 80.4967V80.5783H93.9183L79.2843 80.7492L75.112 80.7842H73.6164V80.7687Z"
    fill="#263238"
  />
  <path
    d="M88.1422 42.5305C88.1798 42.7132 88.1968 42.8996 88.1927 43.0861C88.1927 43.2648 88.1927 43.4746 88.1927 43.7426C88.1919 44.0409 88.1339 44.3363 88.0218 44.6128C87.7724 44.886 87.4459 45.077 87.0855 45.1606C86.6954 45.2652 86.2999 45.3482 85.9007 45.4092C84.9917 45.5593 84.0715 45.6308 83.1502 45.6229C81.4713 45.6083 79.8036 45.3465 78.201 44.8459C77.708 44.7096 77.2435 44.4859 76.8296 44.1855C76.7193 44.1014 76.6178 44.0064 76.5266 43.9019C76.4912 43.8671 76.4623 43.8263 76.4412 43.7815C76.4412 43.7815 76.5849 43.9252 76.8763 44.1233C77.2977 44.3908 77.7594 44.5889 78.2437 44.7099C79.8409 45.16 81.4909 45.3951 83.1502 45.4092C84.0604 45.4169 84.9697 45.352 85.8696 45.2149C86.2618 45.1591 86.6508 45.0826 87.035 44.9857C87.206 44.9425 87.3715 44.8799 87.5284 44.7993C87.6017 44.7639 87.6719 44.7223 87.7382 44.675C87.7996 44.6371 87.8526 44.5868 87.8936 44.5273C88.0008 44.2706 88.0626 43.9972 88.0761 43.7193C88.0995 43.4707 88.1111 43.2531 88.1189 43.0744C88.1133 42.8928 88.1211 42.711 88.1422 42.5305Z"
    fill="#263238"
  />
  <path
    d="M78.3556 44.8225C78.0049 44.4295 77.8017 43.9269 77.7806 43.4007C77.6932 42.8797 77.7922 42.3446 78.0603 41.8895C77.9913 42.3835 77.9653 42.8827 77.9826 43.3812C78.0665 43.8712 78.1913 44.3533 78.3556 44.8225Z"
    fill="#263238"
  />
  <path
    d="M80.6593 41.9012C80.7214 41.9012 80.5893 42.6782 80.6165 43.6066C80.6437 44.5351 80.8069 45.2965 80.7486 45.3121C80.3338 44.218 80.3023 43.0155 80.6593 41.9012Z"
    fill="#263238"
  />
  <path
    d="M83.5655 45.4713C83.4742 44.9116 83.4481 44.3432 83.4878 43.7775C83.4649 43.2113 83.5066 42.6444 83.6121 42.0876C83.708 42.6468 83.7341 43.2158 83.6898 43.7814C83.7153 44.3476 83.6736 44.9149 83.5655 45.4713Z"
    fill="#263238"
  />
  <path
    d="M86.7432 42.3635C86.8913 42.8523 86.9166 43.37 86.817 43.8708C86.7742 44.3798 86.6046 44.87 86.3237 45.2966C86.2654 45.2732 86.5024 44.6478 86.615 43.8436C86.7277 43.0395 86.6811 42.3635 86.7432 42.3635Z"
    fill="#263238"
  />
  <path
    d="M96.5368 66.6435C96.5335 66.4612 96.5478 66.2791 96.5795 66.0996C96.6222 65.75 96.6999 65.2488 96.7893 64.6312C97.0823 63.0299 97.1542 61.396 97.0029 59.7751C96.803 58.1603 96.4651 56.5656 95.9929 55.0085C95.8297 54.4335 95.6938 53.9557 95.585 53.5789C95.5277 53.4066 95.4848 53.2299 95.4568 53.0506C95.5422 53.2111 95.6099 53.3804 95.6588 53.5556C95.7753 53.8858 95.9424 54.3675 96.1289 54.9658C96.6469 56.5224 97.0074 58.1271 97.2049 59.7557C97.3613 61.393 97.2696 63.0445 96.933 64.6545C96.8203 65.2411 96.731 65.7305 96.6572 66.1113C96.635 66.2923 96.5946 66.4706 96.5368 66.6435Z"
    fill="#263238"
  />
  <path
    d="M126.64 65.14L118.932 82.1904C118.725 82.5613 118.427 82.8736 118.066 83.0984C117.706 83.3232 117.294 83.4532 116.87 83.4763L81.312 83.4297C81.3542 83.0686 81.5259 82.735 81.7951 82.4907C82.0644 82.2465 82.4131 82.108 82.7766 82.1011L96.2685 81.802L103.176 65.2294C103.283 64.9704 103.463 64.7487 103.695 64.5918C103.928 64.435 104.201 64.35 104.481 64.3475L126.018 64.1844C126.132 64.1833 126.244 64.211 126.344 64.2647C126.444 64.3184 126.529 64.3965 126.591 64.4918C126.653 64.587 126.69 64.6964 126.699 64.8097C126.707 64.923 126.687 65.0366 126.64 65.14Z"
    fill="#E0E0E0"
  />
  <path
    d="M126.64 65.1401C126.676 65.0796 126.697 65.0119 126.703 64.942C126.717 64.8386 126.708 64.7331 126.675 64.634C126.642 64.5348 126.586 64.4448 126.512 64.3709C126.404 64.2566 126.257 64.1849 126.101 64.1689C125.93 64.1689 125.751 64.1689 125.553 64.1689H124.181L115.316 64.2039L109.101 64.2389H105.604H104.691C104.367 64.2126 104.041 64.2815 103.755 64.437C103.465 64.6064 103.237 64.8654 103.106 65.1751C102.982 65.4665 102.862 65.7617 102.737 66.0569C100.756 70.8003 98.5495 76.0797 96.1875 81.7399L96.2808 81.6738L88.989 81.8331L85.1897 81.9147L83.2473 81.9574H82.7578C82.371 81.9696 82.0014 82.1203 81.7162 82.3819C81.4311 82.6435 81.2492 82.9988 81.2039 83.3832V83.5036H81.3282L103.472 83.5269H116.435C116.614 83.5269 116.789 83.5269 116.971 83.5269C117.155 83.5137 117.336 83.4785 117.511 83.422C117.85 83.3192 118.163 83.1464 118.431 82.9148C118.698 82.6833 118.915 82.3982 119.065 82.0779C119.337 81.4641 119.609 80.8619 119.873 80.2792C121.971 75.598 123.673 71.8103 124.85 69.1842L126.19 66.1696L126.532 65.3926C126.609 65.2139 126.644 65.1207 126.644 65.1207L126.512 65.3849C126.427 65.5636 126.306 65.8239 126.151 66.1618C125.832 66.8533 125.374 67.8634 124.772 69.1609L119.722 80.2248L118.906 82.0196C118.764 82.3208 118.56 82.5885 118.306 82.8048C118.053 83.0211 117.757 83.1812 117.437 83.2744C117.104 83.3661 116.757 83.399 116.412 83.3715H113.102L103.448 83.3482L81.3049 83.3093L81.4136 83.4298C81.4394 83.2199 81.511 83.0183 81.6234 82.8393C81.7898 82.5845 82.0335 82.3897 82.3188 82.2838C82.4596 82.2319 82.6078 82.203 82.7578 82.1983H83.2434L85.1858 82.1556L88.9851 82.074L96.2808 81.9108H96.3468L96.374 81.8487C98.7282 76.1846 100.927 70.8974 102.897 66.1541C103.021 65.8588 103.141 65.5636 103.266 65.2722C103.378 64.9972 103.579 64.7676 103.837 64.6196C104.097 64.4789 104.392 64.4156 104.687 64.437H105.6L109.097 64.4059L115.312 64.3476L124.178 64.2466L125.549 64.2272C125.747 64.2272 125.937 64.2272 126.093 64.2272C126.24 64.242 126.377 64.308 126.481 64.4137C126.553 64.4836 126.609 64.5688 126.644 64.6628C126.678 64.7569 126.692 64.8576 126.683 64.9575C126.673 65.0193 126.659 65.0803 126.64 65.1401Z"
    fill="#263238"
  />
  <path
    d="M96.9249 83.624C96.9683 83.567 97.0036 83.5042 97.0298 83.4375C97.0997 83.2899 97.1813 83.1073 97.2862 82.8859C97.5115 82.3731 97.8184 81.6855 98.1875 80.8464C98.9411 79.1176 99.959 76.7207 101.058 74.0635C102.158 71.4063 103.141 68.9822 103.801 67.2263C104.135 66.3444 104.403 65.6296 104.578 65.1323C104.656 64.9031 104.718 64.7128 104.772 64.5574C104.8 64.4916 104.818 64.4223 104.827 64.3515C104.784 64.409 104.751 64.4734 104.729 64.5419L104.496 65.1013L103.657 67.168C102.927 68.9395 101.944 71.3364 100.86 73.9819C99.7764 76.6275 98.778 79.0322 98.0476 80.7881C97.7058 81.6389 97.4222 82.342 97.2085 82.8587L96.991 83.4259C96.9598 83.4885 96.9376 83.5552 96.9249 83.624Z"
    fill="#174EA6"
  />
  <path
    d="M110.876 73.4069C110.876 73.6253 110.941 73.8388 111.062 74.0203C111.183 74.2018 111.356 74.3432 111.558 74.4266C111.76 74.51 111.982 74.5316 112.196 74.4887C112.41 74.4458 112.606 74.3404 112.761 74.1857C112.915 74.031 113.019 73.834 113.062 73.6198C113.104 73.4055 113.081 73.1835 112.997 72.982C112.913 72.7805 112.771 72.6084 112.589 72.4877C112.407 72.3669 112.194 72.3029 111.975 72.3036C111.83 72.3036 111.687 72.3322 111.554 72.3877C111.42 72.4432 111.299 72.5245 111.196 72.627C111.094 72.7295 111.013 72.8512 110.958 72.985C110.903 73.1188 110.875 73.2622 110.876 73.4069Z"
    fill="white"
  />
  <path
    d="M121.788 75.9903C122.303 75.8978 122.803 75.7371 123.276 75.5125C123.426 75.4069 123.545 75.2628 123.62 75.0953C123.695 74.9278 123.724 74.7431 123.703 74.5607L123.621 74.2888C123.621 74.2888 124.534 73.5118 124.398 72.8553C124.398 72.8553 125.288 72.1133 124.985 71.4179C124.985 71.4179 125.801 70.9051 125.529 70.404C125.369 70.1695 125.158 69.9743 124.911 69.833C124.665 69.6917 124.39 69.608 124.107 69.5882C123.676 69.5688 122.308 69.2774 122.188 69.4872C122.188 69.4872 121.854 70.0427 122.133 70.2641L122.549 70.5943C122.549 70.5943 121.329 70.2991 121.147 70.54C120.964 70.7808 120.758 71.3169 121.24 71.5578C121.24 71.5578 120.754 71.6355 120.75 71.9463C120.747 72.257 120.781 72.6222 121.1 72.7232C121.419 72.8242 121.722 72.9718 121.722 72.9718C121.722 72.9718 121.217 72.9019 121.209 73.1661C121.201 73.4302 121.081 73.6439 121.399 73.943C121.718 74.2422 122.289 74.8793 122.289 74.8793L121.788 75.9903Z"
    fill="#A8605D"
  />
  <path
    d="M121.764 73.0067C121.764 73.0067 121.904 73.0067 122.126 73.0572C122.405 73.1097 122.67 73.2209 122.903 73.3835C123.137 73.5513 123.33 73.7689 123.47 74.0206C123.579 74.2149 123.621 74.3509 123.637 74.347C123.634 74.2205 123.6 74.0967 123.54 73.9857C123.41 73.7112 123.212 73.4745 122.965 73.2981C122.716 73.1209 122.426 73.0124 122.122 72.9834C122.003 72.9616 121.88 72.9696 121.764 73.0067Z"
    fill="#844949"
  />
  <path
    d="M124.446 72.7931C124.335 72.6613 124.204 72.5485 124.057 72.459C123.728 72.2233 123.371 72.0313 122.993 71.8879C122.61 71.7409 122.211 71.643 121.804 71.5966C121.636 71.5725 121.466 71.5725 121.299 71.5966C121.862 71.6719 122.416 71.802 122.954 71.9851C123.477 72.2028 123.977 72.4735 124.446 72.7931Z"
    fill="#844949"
  />
  <path
    d="M125.009 71.3907C124.271 70.9155 123.425 70.6349 122.55 70.5749C122.55 70.6059 123.121 70.7031 123.797 70.9284C124.473 71.1537 124.993 71.4179 125.009 71.3907Z"
    fill="#844949"
  />
  <path
    d="M137.719 0.726135H107.289V45.5296H110.23L112.907 50.7702L116.325 45.5296H137.719V0.726135Z"
    fill="#FAFAFA"
  />
  <path
    d="M137.716 0.7261C137.716 0.7261 137.716 0.792141 137.716 0.931994C137.716 1.07185 137.716 1.28163 137.716 1.54968C137.716 2.10132 137.716 2.91324 137.716 3.96602C137.716 6.09101 137.716 9.19108 137.739 13.1225C137.739 21.0125 137.766 32.2202 137.786 45.5295V45.6189H137.716H116.322L116.407 45.5761L112.985 50.8167L112.892 50.9644L112.81 50.809C111.975 49.1657 111.078 47.4137 110.176 45.6461L110.133 45.5645L110.227 45.6228H107.185V45.5218C107.185 28.5724 107.185 13.0332 107.208 0.71833V0.636749H107.286L129.503 0.679482L135.594 0.698906H137.179C137.537 0.698906 137.716 0.698906 137.716 0.698906H137.164H135.56L129.453 0.722215L107.286 0.761063L107.368 0.683366C107.368 12.9982 107.368 28.5374 107.387 45.4868L107.286 45.3858H110.289L110.316 45.4402L110.355 45.5179L112.993 50.6808H112.818C113.983 48.8782 115.149 47.099 116.24 45.4402L116.268 45.3936H116.322H137.716L137.622 45.4868C137.642 32.2008 137.657 21.0125 137.669 13.1419C137.669 9.19885 137.688 6.09101 137.692 3.96214C137.692 2.90159 137.692 2.0819 137.692 1.52637C137.692 1.25443 137.692 1.04465 137.692 0.89703C137.692 0.749408 137.716 0.7261 137.716 0.7261Z"
    fill="#263238"
  />
  <path
    d="M115.805 8.49963H115.704C115.247 8.49963 114.877 8.8701 114.877 9.3271V37.3404C114.877 37.7974 115.247 38.1679 115.704 38.1679H115.805C116.262 38.1679 116.633 37.7974 116.633 37.3404V9.3271C116.633 8.8701 116.262 8.49963 115.805 8.49963Z"
    fill="#E0E0E0"
  />
  <path
    d="M115.805 38.1678C116.011 38.1551 116.206 38.0714 116.357 37.9308C116.718 37.655 116.57 36.9907 116.594 36.2293C116.594 34.6754 116.574 32.4183 116.563 29.6251C116.551 26.832 116.563 23.5376 116.539 19.8665C116.539 18.029 116.539 16.1021 116.539 14.1015V9.51351C116.548 9.3913 116.54 9.26847 116.516 9.14834C116.486 9.03595 116.43 8.93215 116.353 8.84533C116.273 8.75728 116.174 8.68923 116.064 8.6467C115.953 8.60418 115.834 8.58837 115.716 8.60058C115.599 8.60081 115.484 8.62918 115.38 8.68327C115.277 8.73737 115.188 8.81561 115.121 8.91137C115.053 9.00563 115.009 9.11494 114.993 9.22992C114.993 9.33481 114.993 9.47855 114.993 9.6184V14.218C114.993 16.2148 114.993 18.1455 114.993 19.9831C114.993 23.6542 114.993 26.9757 114.974 29.7417C114.954 32.5077 114.95 34.7608 114.943 36.3225C114.943 36.711 114.943 37.0568 114.943 37.3559C114.945 37.4786 114.974 37.5993 115.029 37.7089C115.085 37.8185 115.164 37.9143 115.261 37.9891C115.383 38.0816 115.528 38.1393 115.681 38.1562H115.84C115.787 38.1621 115.734 38.1621 115.681 38.1562C115.521 38.15 115.366 38.0959 115.238 38.0008C115.131 37.925 115.044 37.8255 114.983 37.7102C114.921 37.595 114.888 37.467 114.884 37.3365C114.884 37.0373 114.884 36.6916 114.884 36.3031C114.884 34.7492 114.865 32.496 114.853 29.7223C114.842 26.9485 114.853 23.6348 114.83 19.9636C114.83 18.1261 114.83 16.1954 114.83 14.1986C114.83 13.1963 114.83 12.1798 114.83 11.149V9.59509C114.822 9.45923 114.822 9.32306 114.83 9.18719C114.852 9.0465 114.908 8.91327 114.993 8.79871C115.082 8.67624 115.199 8.57698 115.334 8.50935C115.469 8.44172 115.619 8.40772 115.77 8.41023C115.914 8.40139 116.059 8.42468 116.193 8.47842C116.328 8.53216 116.449 8.61501 116.547 8.72101C116.647 8.83143 116.718 8.96493 116.753 9.10949C116.782 9.24603 116.792 9.38584 116.784 9.52517V11.0791C116.784 12.115 116.784 13.1316 116.784 14.1287C116.784 16.1293 116.784 18.0562 116.784 19.8937C116.784 23.5648 116.784 26.8863 116.761 29.6523C116.737 32.4183 116.737 34.6715 116.73 36.2565V37.286C116.737 37.4159 116.716 37.546 116.668 37.667C116.62 37.7879 116.545 37.8965 116.45 37.9852C116.364 38.0641 116.261 38.1218 116.149 38.1535C116.037 38.1852 115.919 38.1901 115.805 38.1678Z"
    fill="#263238"
  />
  <path
    d="M122.557 8.49963H122.456C121.999 8.49963 121.628 8.8701 121.628 9.3271V37.3404C121.628 37.7974 121.999 38.1679 122.456 38.1679H122.557C123.014 38.1679 123.384 37.7974 123.384 37.3404V9.3271C123.384 8.8701 123.014 8.49963 122.557 8.49963Z"
    fill="#E0E0E0"
  />
  <path
    d="M122.565 38.1678C122.771 38.1555 122.966 38.0717 123.116 37.9309C123.478 37.6551 123.334 36.9908 123.353 36.2293C123.353 34.6754 123.353 32.4183 123.322 29.6252C123.291 26.832 123.322 23.5377 123.299 19.8665C123.299 18.029 123.299 16.1022 123.299 14.1015V11.0714C123.299 10.5586 123.299 10.038 123.299 9.51744C123.308 9.39522 123.3 9.27239 123.276 9.15227C123.249 9.03951 123.194 8.93531 123.116 8.84925C123.036 8.76265 122.937 8.69559 122.826 8.65318C122.716 8.61076 122.597 8.59412 122.479 8.60451C122.362 8.60476 122.246 8.6331 122.142 8.68718C122.038 8.74125 121.949 8.81947 121.881 8.91529C121.814 9.00978 121.772 9.11913 121.757 9.23385C121.757 9.33874 121.757 9.48247 121.757 9.62233V11.1762C121.757 12.2122 121.757 13.2287 121.757 14.2258C121.757 16.2226 121.757 18.1534 121.757 19.9909C121.757 23.662 121.757 26.9835 121.733 29.7495C121.71 32.5155 121.71 34.7686 121.702 36.3303V37.3637C121.703 37.4866 121.733 37.6075 121.788 37.7173C121.843 37.8271 121.923 37.9227 122.021 37.9969C122.142 38.0892 122.285 38.147 122.437 38.164H122.596C122.543 38.1699 122.489 38.1699 122.437 38.164C122.277 38.1571 122.123 38.103 121.994 38.0086C121.888 37.9322 121.801 37.8326 121.74 37.7174C121.679 37.6023 121.644 37.4746 121.64 37.3443C121.64 37.0451 121.64 36.6994 121.64 36.3109C121.64 34.757 121.621 32.5038 121.605 29.7301C121.59 26.9563 121.605 23.6426 121.605 19.9714C121.605 18.1339 121.605 16.2032 121.605 14.2064V9.60679C121.605 9.4747 121.605 9.35427 121.605 9.19888C121.631 9.05912 121.687 8.92658 121.768 8.8104C121.858 8.68841 121.975 8.5895 122.11 8.52192C122.245 8.45435 122.394 8.42006 122.545 8.42192C122.69 8.41197 122.835 8.43475 122.969 8.48855C123.104 8.54236 123.224 8.62582 123.322 8.73271C123.422 8.84388 123.494 8.97699 123.532 9.12119C123.56 9.2579 123.569 9.39771 123.559 9.53686V14.1209C123.559 16.1216 123.559 18.0485 123.559 19.886C123.559 23.5571 123.559 26.8786 123.559 29.6446C123.559 32.4106 123.536 34.6638 123.528 36.2488C123.528 36.6372 123.528 36.9791 123.528 37.2782C123.538 37.4084 123.518 37.5391 123.469 37.6603C123.421 37.7815 123.345 37.89 123.248 37.9775C123.16 38.0641 123.05 38.127 122.931 38.1602C122.811 38.1935 122.686 38.1961 122.565 38.1678Z"
    fill="#263238"
  />
  <path
    d="M129.305 8.49963H129.204C128.747 8.49963 128.376 8.8701 128.376 9.3271V37.3404C128.376 37.7974 128.747 38.1679 129.204 38.1679H129.305C129.762 38.1679 130.132 37.7974 130.132 37.3404V9.3271C130.132 8.8701 129.762 8.49963 129.305 8.49963Z"
    fill="#E0E0E0"
  />
  <path
    d="M129.305 38.1678C129.511 38.1551 129.706 38.0714 129.857 37.9308C130.218 37.655 130.07 36.9907 130.094 36.2293C130.094 34.6754 130.074 32.4183 130.063 29.6251C130.051 26.832 130.063 23.5376 130.039 19.8665C130.039 18.029 130.039 16.1021 130.039 14.1015V9.51351C130.048 9.3913 130.04 9.26847 130.016 9.14834C129.986 9.03595 129.93 8.93215 129.853 8.84533C129.773 8.75728 129.674 8.68923 129.564 8.6467C129.453 8.60418 129.334 8.58837 129.216 8.60058C129.099 8.60081 128.984 8.62918 128.88 8.68327C128.777 8.73737 128.688 8.81561 128.621 8.91137C128.553 9.00563 128.509 9.11494 128.493 9.22992C128.493 9.33481 128.493 9.47855 128.493 9.6184V14.218C128.493 16.2148 128.493 18.1455 128.493 19.9831C128.493 23.6542 128.493 26.9757 128.474 29.7417C128.454 32.5077 128.446 34.7608 128.443 36.3225C128.443 36.711 128.443 37.0568 128.443 37.3559C128.445 37.4786 128.474 37.5993 128.529 37.7089C128.585 37.8185 128.664 37.9143 128.761 37.9891C128.883 38.0816 129.028 38.1393 129.181 38.1562H129.34C129.287 38.1621 129.234 38.1621 129.181 38.1562C129.021 38.15 128.866 38.0959 128.738 38.0008C128.631 37.925 128.544 37.8255 128.483 37.7102C128.421 37.595 128.388 37.467 128.384 37.3365C128.384 37.0373 128.384 36.6916 128.384 36.3031C128.384 34.7492 128.365 32.496 128.353 29.7223C128.342 26.9485 128.353 23.6348 128.33 19.9636C128.33 18.1261 128.33 16.1954 128.33 14.1986C128.33 13.1963 128.33 12.1798 128.33 11.149V9.59509C128.322 9.45923 128.322 9.32306 128.33 9.18719C128.352 9.0465 128.408 8.91327 128.493 8.79871C128.582 8.67624 128.699 8.57698 128.834 8.50935C128.969 8.44172 129.119 8.40772 129.27 8.41023C129.414 8.40139 129.559 8.42468 129.693 8.47842C129.828 8.53216 129.949 8.61501 130.047 8.72101C130.147 8.83143 130.218 8.96493 130.253 9.10949C130.28 9.24632 130.29 9.38587 130.284 9.52517V11.0791C130.284 12.115 130.284 13.1316 130.284 14.1287C130.284 16.1293 130.284 18.0562 130.284 19.8937C130.284 23.5648 130.284 26.8863 130.261 29.6523C130.237 32.4183 130.237 34.6715 130.23 36.2565C130.23 36.645 130.23 36.9868 130.23 37.286C130.237 37.4159 130.216 37.546 130.168 37.667C130.12 37.7879 130.045 37.8965 129.95 37.9852C129.864 38.0641 129.761 38.1218 129.649 38.1535C129.537 38.1852 129.419 38.1901 129.305 38.1678Z"
    fill="#263238"
  />
  <path
    d="M115.735 18.9924H115.226C114.336 18.9924 113.614 19.7142 113.614 20.6045V20.791C113.614 21.6814 114.336 22.4032 115.226 22.4032H115.735C116.626 22.4032 117.347 21.6814 117.347 20.791V20.6045C117.347 19.7142 116.626 18.9924 115.735 18.9924Z"
    fill="#C5221F"
  />
  <path
    d="M122.926 25.4257H122.417C121.526 25.4257 120.805 26.1475 120.805 27.0379V27.2244C120.805 28.1147 121.526 28.8365 122.417 28.8365H122.926C123.816 28.8365 124.538 28.1147 124.538 27.2244V27.0379C124.538 26.1475 123.816 25.4257 122.926 25.4257Z"
    fill="#C5221F"
  />
  <path
    d="M129.433 13.3012H128.924C128.034 13.3012 127.312 14.023 127.312 14.9134V15.0999C127.312 15.9903 128.034 16.7121 128.924 16.7121H129.433C130.323 16.7121 131.045 15.9903 131.045 15.0999V14.9134C131.045 14.023 130.323 13.3012 129.433 13.3012Z"
    fill="#C5221F"
  />
  <path
    d="M68.877 13.7751C68.7607 10.6079 67.59 7.57016 65.5508 5.14395C63.5115 2.71773 60.7204 1.04198 57.6204 0.382553C54.5203 -0.276874 51.2889 0.117792 48.4387 1.50394C45.5884 2.89008 43.2827 5.18831 41.8873 8.03401C40.4919 10.8797 40.0868 14.1099 40.7361 17.212C41.3855 20.3142 43.0522 23.1107 45.4717 25.1578C47.8913 27.205 50.9252 28.3855 54.0921 28.5122C57.2589 28.6388 60.3774 27.7043 62.9527 25.8569L68.1117 27.7604L66.3325 22.4266C68.1024 19.8979 68.9961 16.8594 68.877 13.7751Z"
    fill="#FAFAFA"
  />
  <path
    d="M68.877 13.7752C68.8796 13.8269 68.8796 13.8788 68.877 13.9305C68.877 14.0393 68.877 14.1947 68.877 14.3928C68.8768 14.9927 68.8405 15.5921 68.7682 16.1876C68.4797 18.4436 67.6522 20.5969 66.3557 22.4655V22.4111L68.1777 27.741L68.2243 27.8848L68.0845 27.8342L62.9216 25.9385H62.8788V25.8957L63.007 25.9462C61.3357 27.1501 59.4232 27.9772 57.4013 28.3704C56.8671 28.474 56.3276 28.5479 55.7852 28.5918C55.2374 28.6423 54.678 28.619 54.1186 28.6151C53.9787 28.6151 53.8389 28.6151 53.6952 28.6151L53.2756 28.5685L52.4248 28.4714C52.1412 28.4325 51.8654 28.3548 51.5818 28.3004C51.2982 28.246 51.0108 28.1955 50.7349 28.0984C50.1718 27.9339 49.6191 27.7354 49.08 27.504C48.8081 27.3836 48.5323 27.271 48.2642 27.1428L47.4872 26.7038L47.0988 26.4823L46.7103 26.2221L45.9566 25.6588L45.2574 25.0799L44.9039 24.7808L44.5814 24.4506C44.3639 24.2292 44.1463 24.0116 43.9327 23.7863L43.346 23.0559C43.2489 22.9316 43.144 22.8151 43.0547 22.6675L42.7944 22.279C42.6235 22.0109 42.437 21.7545 42.2816 21.502C41.9655 20.9482 41.6853 20.3746 41.4425 19.7849C41.3298 19.4858 41.1861 19.1983 41.0967 18.8875C41.0074 18.5768 40.9142 18.2699 40.8209 17.963C39.9919 14.8032 40.266 11.4552 41.5979 8.4724C42.2203 7.06639 43.0621 5.76822 44.0919 4.62644C45.0996 3.54739 46.2591 2.62085 47.5339 1.876C48.751 1.18876 50.0587 0.676124 51.4187 0.353161L52.4171 0.166691C52.7464 0.113185 53.0784 0.076877 53.4116 0.0579157C54.0573 -0.00044322 54.7063 -0.0147193 55.354 0.0151841C57.5239 0.126481 59.6396 0.733359 61.5386 1.78926C63.4376 2.84516 65.0695 4.32203 66.3091 6.10655C66.5383 6.47172 66.7869 6.8097 66.9812 7.15933L67.56 8.17715C67.7115 8.51124 67.8358 8.84534 67.9485 9.15612C68.0068 9.31151 68.0806 9.46302 68.1272 9.61453C68.1738 9.76603 68.2165 9.91754 68.2554 10.0652C68.3409 10.3526 68.4224 10.6285 68.4963 10.8887L68.6361 11.6269C68.6788 11.8561 68.7177 12.0697 68.7526 12.264C68.7876 12.4582 68.7837 12.6524 68.7993 12.7962C68.8226 13.1108 68.8381 13.3478 68.8498 13.5188C68.8614 13.6897 68.8498 13.7674 68.8498 13.7674C68.8498 13.7674 68.8498 13.6819 68.8187 13.5226C68.7876 13.3634 68.776 13.1109 68.7449 12.8001C68.7449 12.6408 68.7177 12.466 68.6905 12.2717C68.6633 12.0775 68.6089 11.8833 68.5662 11.6385L68.4458 10.8965C68.3681 10.6401 68.2865 10.3682 68.1971 10.0807C68.1544 9.93308 68.1078 9.78546 68.0612 9.63395C68.0145 9.48244 67.9446 9.33482 67.8825 9.17943C67.7504 8.87253 67.6261 8.54232 67.4707 8.20823L66.9346 7.19818C66.7364 6.85243 66.4917 6.51834 66.2586 6.15705C65.0223 4.39525 63.3994 2.93955 61.5141 1.90128C59.6288 0.863009 57.531 0.269687 55.3812 0.166691C54.7334 0.139 54.0845 0.154573 53.4388 0.213308C53.1095 0.232271 52.7814 0.268579 52.4559 0.322082L51.4731 0.512438C50.1226 0.828578 48.8247 1.33753 47.6193 2.02363C46.363 2.76253 45.2195 3.67837 44.224 4.74299C43.205 5.87816 42.3736 7.16858 41.761 8.56563C40.4451 11.5046 40.171 14.8045 40.9841 17.9202C41.0734 18.2271 41.1628 18.5301 41.256 18.837C41.3493 19.1439 41.4852 19.4237 41.5979 19.7189C41.8458 20.2926 42.1313 20.8494 42.4525 21.3855C42.6079 21.6535 42.7905 21.906 42.9576 22.1624L43.214 22.5509C43.2994 22.6752 43.4043 22.7918 43.4976 22.9122L44.0803 23.6309C44.2939 23.8523 44.5037 24.0738 44.7174 24.2913L45.0359 24.6176L45.3856 24.9129L46.0771 25.4956L46.8113 26.0472L47.1765 26.3036L47.5649 26.5212L48.3419 26.9563C48.6061 27.0806 48.878 27.1933 49.1422 27.3137C49.6748 27.5425 50.221 27.7384 50.7777 27.9003C51.0496 27.9974 51.3332 28.0324 51.6129 28.1023C51.8926 28.1722 52.1645 28.2344 52.4443 28.2693L53.2834 28.3665L53.699 28.417C53.835 28.417 53.9749 28.417 54.1147 28.417C54.6664 28.417 55.218 28.448 55.758 28.417C56.2936 28.374 56.8266 28.3027 57.3546 28.2033C59.3542 27.8176 61.2467 27.0039 62.9021 25.818L62.9993 25.7481L63.0303 25.8647L62.9798 25.8064L68.135 27.7216L68.0378 27.8109L66.2741 22.4732V22.446V22.4188C67.5709 20.5701 68.4098 18.4397 68.7216 16.2032C68.8001 15.6105 68.8455 15.0139 68.8575 14.4161C68.8575 14.218 68.8575 14.0665 68.8575 13.9539C68.8575 13.8412 68.877 13.7752 68.877 13.7752Z"
    fill="#263238"
  />
  <path
    d="M49.0183 6.22307L50.6344 7.55556L50.9257 8.59668L55.8012 13.8567L55.2651 14.3734L50.5178 9.12113L49.4806 8.66272L48.2413 6.96118L49.0183 6.22307Z"
    fill="#E0E0E0"
  />
  <path
    d="M49.0179 6.23468C48.9571 6.3094 48.8923 6.38073 48.8237 6.44834L48.2681 7.01164V6.95725L49.5307 8.62383L49.4996 8.60052L50.5408 9.04728L55.2025 14.1752L55.3035 14.284H55.1598L55.7464 13.7828V13.9227C53.8467 11.8599 52.1491 10.0107 50.8943 8.64326C50.7894 8.25478 50.6961 7.91291 50.6146 7.59824L50.634 7.62544L49.4686 6.63093L49.1578 6.35511C49.1187 6.32319 49.0823 6.2881 49.049 6.25022C49.199 6.3477 49.343 6.45407 49.4802 6.56877L50.7039 7.53609C50.7933 7.85076 50.8943 8.19262 51.003 8.57333V8.54614L55.9018 13.7828L55.9717 13.8567L55.8979 13.9227L55.3618 14.4433L55.288 14.5132L55.2181 14.4355L55.1171 14.3267L50.4592 9.17547L50.4864 9.1949L49.453 8.72872H49.4336L48.2176 7.01164L48.1943 6.98056L48.2215 6.95337L48.8237 6.41338C48.8833 6.34849 48.9483 6.28872 49.0179 6.23468Z"
    fill="#263238"
  />
  <path
    d="M56.0263 12.4232L56.5236 12.9554C56.4881 13.0332 56.4756 13.1193 56.4873 13.2039C56.4989 13.2885 56.5344 13.3681 56.5896 13.4333C56.6593 13.4904 56.7405 13.5317 56.8277 13.5545C56.9148 13.5773 57.0059 13.581 57.0946 13.5654L62.0011 18.9613C62.1176 19.0902 62.2074 19.2409 62.2652 19.4047C62.323 19.5685 62.3478 19.7422 62.338 19.9156C62.3283 20.089 62.2842 20.2588 62.2084 20.4151C62.1325 20.5714 62.0264 20.7111 61.8962 20.826L61.6049 21.0863C61.3467 21.312 61.0108 21.4282 60.6683 21.41C60.3259 21.3919 60.0041 21.2409 59.7712 20.9892L54.8531 15.6282C54.8798 15.5376 54.8781 15.441 54.8482 15.3514C54.8183 15.2618 54.7617 15.1835 54.686 15.127C54.624 15.0763 54.5508 15.041 54.4724 15.0241C54.3941 15.0072 54.3128 15.0092 54.2354 15.0299L53.7731 14.5016C53.6886 14.4063 53.645 14.2817 53.6515 14.1545C53.6581 14.0274 53.7143 13.9079 53.8081 13.8217L55.3581 12.4038C55.4512 12.3217 55.572 12.2781 55.696 12.2817C55.8201 12.2853 55.9381 12.3359 56.0263 12.4232Z"
    fill="#C5221F"
  />
  <g opacity="0.3">
    <path
      opacity="0.3"
      d="M61.4802 19.6023L56.9117 14.6142C56.8885 14.5914 56.87 14.5642 56.8574 14.5342C56.8448 14.5042 56.8383 14.472 56.8383 14.4394C56.8383 14.4068 56.8448 14.3746 56.8574 14.3446C56.87 14.3146 56.8885 14.2874 56.9117 14.2646C56.9345 14.2413 56.9617 14.2229 56.9917 14.2102C57.0217 14.1976 57.054 14.1911 57.0865 14.1911C57.1191 14.1911 57.1513 14.1976 57.1813 14.2102C57.2114 14.2229 57.2386 14.2413 57.2613 14.2646L61.8376 19.2527C61.8837 19.2992 61.9095 19.362 61.9095 19.4275C61.9095 19.4929 61.8837 19.5558 61.8376 19.6023C61.8147 19.6268 61.7871 19.6463 61.7563 19.6596C61.7256 19.6729 61.6924 19.6798 61.6589 19.6798C61.6254 19.6798 61.5923 19.6729 61.5615 19.6596C61.5308 19.6463 61.5031 19.6268 61.4802 19.6023Z"
      fill="black"
    />
  </g>
  <g opacity="0.3">
    <path
      opacity="0.3"
      d="M60.8199 20.22L56.2436 15.2164C56.1978 15.1705 56.1721 15.1083 56.1721 15.0435C56.1721 14.9787 56.1978 14.9165 56.2436 14.8706C56.2664 14.8474 56.2936 14.8289 56.3236 14.8163C56.3536 14.8036 56.3859 14.7971 56.4184 14.7971C56.451 14.7971 56.4832 14.8036 56.5132 14.8163C56.5433 14.8289 56.5705 14.8474 56.5932 14.8706L61.1851 19.8742C61.2082 19.8967 61.2266 19.9236 61.2392 19.9532C61.2518 19.9829 61.2582 20.0149 61.2582 20.0471C61.2582 20.0794 61.2518 20.1113 61.2392 20.141C61.2266 20.1707 61.2082 20.1975 61.1851 20.22C61.1618 20.2452 61.1336 20.2653 61.1021 20.279C61.0707 20.2928 61.0368 20.2999 61.0025 20.2999C60.9682 20.2999 60.9343 20.2928 60.9029 20.279C60.8714 20.2653 60.8432 20.2452 60.8199 20.22Z"
      fill="black"
    />
  </g>
  <g opacity="0.3">
    <path
      opacity="0.3"
      d="M60.1168 20.8532L55.5366 15.8651C55.5133 15.8423 55.4949 15.8151 55.4822 15.7851C55.4696 15.7551 55.4631 15.7229 55.4631 15.6903C55.4631 15.6577 55.4696 15.6255 55.4822 15.5955C55.4949 15.5655 55.5133 15.5383 55.5366 15.5155C55.5831 15.4695 55.646 15.4436 55.7114 15.4436C55.7769 15.4436 55.8397 15.4695 55.8862 15.5155L60.4625 20.5036C60.5085 20.5501 60.5344 20.6129 60.5344 20.6784C60.5344 20.7438 60.5085 20.8067 60.4625 20.8532C60.4166 20.899 60.3545 20.9247 60.2897 20.9247C60.2248 20.9247 60.1627 20.899 60.1168 20.8532Z"
      fill="black"
    />
  </g>
  <path
    d="M56.5234 12.9555C56.5234 12.9555 56.0184 13.4294 55.3852 14.0005C54.7519 14.5716 54.2197 15.03 54.2197 15.0222C54.2197 15.0144 54.7247 14.5483 55.358 13.9772C55.9912 13.4061 56.5234 12.9477 56.5234 12.9555Z"
    fill="#263238"
  />
  <path
    d="M57.1058 13.5692C57.1058 13.5692 56.6125 14.0432 55.987 14.6103C55.3616 15.1775 54.8527 15.632 54.8488 15.6282C54.8449 15.6243 55.3577 15.1697 55.9637 14.587C56.5697 14.0043 57.0981 13.5653 57.1058 13.5692Z"
    fill="#263238"
  />
  <path
    d="M55.1013 15.3291C55.0799 15.2952 55.0605 15.2602 55.043 15.2242C54.9961 15.1388 54.9343 15.0625 54.8604 14.9989C54.7878 14.9352 54.7051 14.884 54.6157 14.8474C54.5757 14.8365 54.5367 14.8222 54.4991 14.8046C54.5403 14.7973 54.5823 14.7973 54.6235 14.8046C54.7193 14.8377 54.8077 14.8891 54.8837 14.9561C54.9606 15.0214 55.0228 15.1022 55.0663 15.1931C55.089 15.2348 55.1011 15.2816 55.1013 15.3291Z"
    fill="#263238"
  />
  <path
    d="M55.2997 15.0998C55.2997 15.0998 55.1987 14.9716 55.0588 14.8279C54.919 14.6841 54.7947 14.5792 54.7986 14.5715C54.9054 14.6329 55.0012 14.7117 55.0821 14.8046C55.172 14.8889 55.2457 14.989 55.2997 15.0998Z"
    fill="#263238"
  />
  <path
    d="M55.5135 14.9366C55.4187 14.8555 55.3316 14.7657 55.2532 14.6686C55.1648 14.5781 55.0854 14.4792 55.0162 14.3733C55.1116 14.4553 55.1988 14.5464 55.2765 14.6453C55.3643 14.7349 55.4436 14.8325 55.5135 14.9366Z"
    fill="#263238"
  />
  <path
    d="M55.7696 14.6841C55.67 14.6115 55.58 14.5267 55.5015 14.4316C55.4143 14.3443 55.335 14.2494 55.2645 14.148C55.3582 14.2276 55.4452 14.3147 55.5248 14.4083C55.6142 14.4931 55.696 14.5853 55.7696 14.6841Z"
    fill="#263238"
  />
  <path
    d="M55.9756 14.4549C55.8674 14.4094 55.7725 14.3372 55.6997 14.2451C55.6185 14.1599 55.5598 14.0557 55.5288 13.9421C55.5288 13.9421 55.6026 14.082 55.7269 14.2218C55.8039 14.3056 55.887 14.3835 55.9756 14.4549Z"
    fill="#263238"
  />
  <path
    d="M56.3175 14.2336C56.1943 14.1879 56.0847 14.1117 55.9989 14.0122C55.9056 13.9194 55.8375 13.8044 55.8008 13.6781C55.8693 13.7863 55.9446 13.8901 56.0261 13.9889C56.1161 14.0786 56.2135 14.1605 56.3175 14.2336Z"
    fill="#263238"
  />
  <path
    d="M56.4301 13.9189C56.3288 13.8883 56.241 13.8239 56.1815 13.7364C56.1123 13.657 56.0701 13.5577 56.061 13.4528C56.1023 13.5451 56.1517 13.6335 56.2087 13.7169C56.2758 13.7913 56.3499 13.8589 56.4301 13.9189Z"
    fill="#263238"
  />
  <path
    d="M56.8843 13.7868C56.8423 13.7975 56.7982 13.7975 56.7561 13.7868C56.6548 13.766 56.5601 13.7206 56.4803 13.6547C56.4007 13.5883 56.3392 13.5028 56.3016 13.4061C56.2836 13.3671 56.2743 13.3247 56.2744 13.2818C56.2744 13.2818 56.2744 13.3284 56.3249 13.3983C56.3744 13.4844 56.442 13.5586 56.523 13.6159C56.5988 13.6797 56.6876 13.7262 56.7833 13.7519L56.8843 13.7868Z"
    fill="#263238"
  />
  <path
    d="M63.2326 7.64105L63.0889 7.48178L61.2436 9.39698L59.5615 7.71098L61.3368 5.86958L61.1931 5.71031C60.6427 5.642 60.0841 5.71291 59.5682 5.91652C59.0524 6.12014 58.5959 6.44995 58.2406 6.87575C57.1723 8.08392 57.7239 9.67669 57.7239 9.67669L55.7466 11.6463L57.4559 13.2507L59.4371 11.3083C59.4371 11.3083 61.2863 11.8755 62.4712 10.5702C63.555 9.36591 63.2326 7.64105 63.2326 7.64105Z"
    fill="#263238"
  />
  <path
    d="M54.3983 16.0944L52.689 14.4978L50.4785 16.6888C50.4785 16.6888 48.4506 16.3003 47.4445 17.423C46.7959 18.1757 46.4645 19.1504 46.5199 20.1424C46.5199 20.2745 46.6869 20.3172 46.6869 20.3172L48.676 18.5652L50.3581 20.2473L48.4157 21.9294L48.5788 22.0887C49.1371 22.2352 49.7256 22.2202 50.2757 22.0456C50.8259 21.8709 51.3151 21.5437 51.6867 21.1019C52.7589 19.8938 52.2072 18.3049 52.2072 18.3049L54.3983 16.0944Z"
    fill="#263238"
  />
  <path
    d="M63.0886 7.48173L61.1035 9.23767L59.4175 7.55166L61.185 5.71026C60.6267 5.56376 60.0383 5.57871 59.4882 5.75338C58.938 5.92805 58.4487 6.25527 58.0772 6.697C57.0089 7.90518 57.5605 9.49795 57.5605 9.49795L55.587 11.487L57.2964 13.0914L59.2776 11.149C59.2776 11.149 61.1268 11.7162 62.3116 10.4109C63.411 9.21047 63.0886 7.48173 63.0886 7.48173Z"
    fill="#174EA6"
  />
  <path
    d="M54.2314 15.9468L52.5259 14.3501L50.3077 16.5295C50.3077 16.5295 48.276 16.141 47.2737 17.2676C46.9385 17.6666 46.6952 18.1344 46.5609 18.6379C46.4267 19.1414 46.4048 19.6683 46.4967 20.1812L48.4857 18.4253L50.1679 20.1074L48.3925 21.9488C48.9505 22.0953 49.5385 22.0807 50.0885 21.9068C50.6386 21.7328 51.1281 21.4066 51.5003 20.9659C52.5687 19.7539 52.017 18.165 52.017 18.165L54.2314 15.9468Z"
    fill="#174EA6"
  />
</svg>
